<svg width="109" height="29" viewBox="0 0 109 29" fill="none" xmlns="http://www.w3.org/2000/svg">
<path fill-rule="evenodd" clip-rule="evenodd" d="M1.60797 0.136H4.12797C4.53331 0.136 4.86397 0.194666 5.11997 0.312C5.37597 0.429334 5.5733 0.575999 5.71197 0.752C5.85064 0.928001 5.9453 1.12 5.99597 1.328C6.04664 1.536 6.07197 1.728 6.07197 1.904C6.07197 2.08 6.04664 2.27067 5.99597 2.476C5.9453 2.68133 5.85064 2.872 5.71197 3.048C5.5733 3.224 5.37597 3.36933 5.11997 3.484C4.86397 3.59867 4.53331 3.656 4.12797 3.656H2.60797V5.848H1.60797V0.136ZM2.60797 2.84H4.07197C4.18397 2.84 4.29864 2.824 4.41597 2.792C4.5333 2.76 4.6413 2.708 4.73997 2.636C4.83864 2.564 4.91864 2.468 4.97997 2.348C5.0413 2.228 5.07197 2.07733 5.07197 1.896C5.07197 1.70933 5.0453 1.55467 4.99197 1.432C4.93864 1.30933 4.86664 1.212 4.77597 1.14C4.6853 1.068 4.58131 1.01867 4.46397 0.992C4.34664 0.965333 4.22131 0.952 4.08797 0.952H2.60797V2.84ZM9.37597 0.816C9.07197 0.816 8.80931 0.877333 8.58797 1C8.36664 1.12267 8.18664 1.28667 8.04797 1.492C7.9093 1.69733 7.80664 1.93067 7.73997 2.192C7.6733 2.45333 7.63997 2.72 7.63997 2.992C7.63997 3.264 7.6733 3.53067 7.73997 3.792C7.80664 4.05333 7.9093 4.28667 8.04797 4.492C8.18664 4.69733 8.36664 4.86133 8.58797 4.984C8.80931 5.10667 9.07197 5.168 9.37597 5.168C9.67997 5.168 9.94264 5.10667 10.164 4.984C10.3853 4.86133 10.5653 4.69733 10.704 4.492C10.8426 4.28667 10.9453 4.05333 11.012 3.792C11.0786 3.53067 11.112 3.264 11.112 2.992C11.112 2.72 11.0786 2.45333 11.012 2.192C10.9453 1.93067 10.8426 1.69733 10.704 1.492C10.5653 1.28667 10.3853 1.12267 10.164 1C9.94264 0.877333 9.67997 0.816 9.37597 0.816ZM9.37597 0C9.80264 0 10.1853 0.0799992 10.524 0.24C10.8626 0.400001 11.1493 0.615999 11.384 0.888C11.6186 1.16 11.7986 1.47733 11.924 1.84C12.0493 2.20267 12.112 2.58666 12.112 2.992C12.112 3.40267 12.0493 3.78933 11.924 4.152C11.7986 4.51467 11.6186 4.832 11.384 5.104C11.1493 5.376 10.8626 5.59067 10.524 5.748C10.1853 5.90533 9.80264 5.984 9.37597 5.984C8.9493 5.984 8.56664 5.90533 8.22797 5.748C7.8893 5.59067 7.60264 5.376 7.36797 5.104C7.1333 4.832 6.95331 4.51467 6.82797 4.152C6.70264 3.78933 6.63997 3.40267 6.63997 2.992C6.63997 2.58666 6.70264 2.20267 6.82797 1.84C6.95331 1.47733 7.1333 1.16 7.36797 0.888C7.60264 0.615999 7.8893 0.400001 8.22797 0.24C8.56664 0.0799992 8.9493 0 9.37597 0ZM13.024 0.136H15.392C15.8293 0.136 16.208 0.210666 16.528 0.36C16.848 0.509334 17.1093 0.713332 17.312 0.972C17.5146 1.23067 17.6653 1.53333 17.764 1.88C17.8626 2.22667 17.912 2.59733 17.912 2.992C17.912 3.38667 17.8626 3.75733 17.764 4.104C17.6653 4.45067 17.5146 4.75333 17.312 5.012C17.1093 5.27067 16.848 5.47467 16.528 5.624C16.208 5.77333 15.8293 5.848 15.392 5.848H13.024V0.136ZM14.024 5.032H15.008C15.3973 5.032 15.716 4.98 15.964 4.876C16.212 4.772 16.4066 4.628 16.548 4.444C16.6893 4.26 16.7853 4.044 16.836 3.796C16.8866 3.548 16.912 3.28 16.912 2.992C16.912 2.704 16.8866 2.436 16.836 2.188C16.7853 1.94 16.6893 1.724 16.548 1.54C16.4066 1.356 16.212 1.212 15.964 1.108C15.716 1.004 15.3973 0.952 15.008 0.952H14.024V5.032ZM22.656 1.952C22.6133 1.78667 22.5546 1.63467 22.48 1.496C22.4053 1.35733 22.3093 1.23733 22.192 1.136C22.0746 1.03467 21.9373 0.956 21.78 0.9C21.6226 0.844 21.44 0.816 21.232 0.816C20.928 0.816 20.6653 0.877333 20.444 1C20.2226 1.12267 20.0426 1.28667 19.904 1.492C19.7653 1.69733 19.6626 1.93067 19.596 2.192C19.5293 2.45333 19.496 2.72 19.496 2.992C19.496 3.264 19.5293 3.53067 19.596 3.792C19.6626 4.05333 19.7653 4.28667 19.904 4.492C20.0426 4.69733 20.2226 4.86133 20.444 4.984C20.6653 5.10667 20.928 5.168 21.232 5.168C21.456 5.168 21.6533 5.12933 21.824 5.052C21.9946 4.97467 22.1413 4.868 22.264 4.732C22.3866 4.596 22.4826 4.43733 22.552 4.256C22.6213 4.07467 22.6666 3.88 22.688 3.672H23.664C23.6426 4.01333 23.5693 4.32533 23.444 4.608C23.3186 4.89067 23.1493 5.13467 22.936 5.34C22.7226 5.54533 22.472 5.704 22.184 5.816C21.896 5.928 21.5786 5.984 21.232 5.984C20.8053 5.984 20.4226 5.90533 20.084 5.748C19.7453 5.59067 19.4586 5.376 19.224 5.104C18.9893 4.832 18.8093 4.51467 18.684 4.152C18.5586 3.78933 18.496 3.40267 18.496 2.992C18.496 2.58666 18.5586 2.20267 18.684 1.84C18.8093 1.47733 18.9893 1.16 19.224 0.888C19.4586 0.615999 19.7453 0.400001 20.084 0.24C20.4226 0.0799992 20.8053 0 21.232 0C21.552 0 21.8533 0.0439996 22.136 0.132C22.4186 0.22 22.668 0.347999 22.884 0.516C23.1 0.684001 23.2746 0.887999 23.408 1.128C23.5413 1.368 23.624 1.64267 23.656 1.952H22.656ZM26.104 0.136H27.168L29.368 5.848H28.296L27.76 4.336H25.48L24.944 5.848H23.912L26.104 0.136ZM25.752 3.576H27.496L26.64 1.12H26.616L25.752 3.576ZM30.568 3.944C30.568 4.16267 30.6053 4.34933 30.68 4.504C30.7546 4.65867 30.8586 4.78533 30.992 4.884C31.1253 4.98267 31.2786 5.05467 31.452 5.1C31.6253 5.14533 31.8133 5.168 32.016 5.168C32.2346 5.168 32.4213 5.14267 32.576 5.092C32.7306 5.04133 32.856 4.976 32.952 4.896C33.048 4.816 33.1173 4.724 33.16 4.62C33.2026 4.516 33.224 4.41067 33.224 4.304C33.224 4.08533 33.1746 3.924 33.076 3.82C32.9773 3.716 32.8693 3.64267 32.752 3.6C32.5493 3.52533 32.3133 3.45467 32.044 3.388C31.7746 3.32133 31.4426 3.23467 31.048 3.128C30.8026 3.064 30.5986 2.98 30.436 2.876C30.2733 2.772 30.144 2.656 30.048 2.528C29.952 2.4 29.884 2.264 29.844 2.12C29.804 1.976 29.784 1.82933 29.784 1.68C29.784 1.392 29.844 1.14267 29.964 0.932C30.084 0.721332 30.2426 0.546667 30.44 0.408C30.6373 0.269333 30.8613 0.166667 31.112 0.1C31.3626 0.033333 31.616 0 31.872 0C32.1706 0 32.452 0.0386663 32.716 0.116C32.98 0.193334 33.212 0.309333 33.412 0.464C33.612 0.618667 33.7706 0.809332 33.888 1.036C34.0053 1.26267 34.064 1.52533 34.064 1.824H33.064C33.0373 1.456 32.912 1.196 32.688 1.044C32.464 0.891999 32.1786 0.816 31.832 0.816C31.7146 0.816 31.5946 0.828 31.472 0.852C31.3493 0.876 31.2373 0.916 31.136 0.972C31.0346 1.028 30.9506 1.104 30.884 1.2C30.8173 1.296 30.784 1.416 30.784 1.56C30.784 1.76267 30.8466 1.92133 30.972 2.036C31.0973 2.15067 31.2613 2.23733 31.464 2.296C31.4853 2.30133 31.5693 2.324 31.716 2.364C31.8626 2.404 32.0266 2.448 32.208 2.496C32.3893 2.544 32.5666 2.59067 32.74 2.636C32.9133 2.68133 33.0373 2.71467 33.112 2.736C33.2986 2.79467 33.4613 2.87467 33.6 2.976C33.7386 3.07733 33.8546 3.19333 33.948 3.324C34.0413 3.45467 34.1106 3.59467 34.156 3.744C34.2013 3.89333 34.224 4.04267 34.224 4.192C34.224 4.512 34.1586 4.78533 34.028 5.012C33.8973 5.23867 33.7253 5.424 33.512 5.568C33.2986 5.712 33.056 5.81733 32.784 5.884C32.512 5.95067 32.2346 5.984 31.952 5.984C31.6266 5.984 31.32 5.944 31.032 5.864C30.744 5.784 30.4933 5.66133 30.28 5.496C30.0666 5.33067 29.896 5.11867 29.768 4.86C29.64 4.60133 29.5733 4.296 29.568 3.944H30.568ZM34.552 0.136H39.176V1H37.36V5.848H36.36V1H34.552V0.136ZM42.064 0.136H44.584C44.9893 0.136 45.32 0.194666 45.576 0.312C45.832 0.429334 46.0293 0.575999 46.168 0.752C46.3066 0.928001 46.4013 1.12 46.452 1.328C46.5026 1.536 46.528 1.728 46.528 1.904C46.528 2.08 46.5026 2.27067 46.452 2.476C46.4013 2.68133 46.3066 2.872 46.168 3.048C46.0293 3.224 45.832 3.36933 45.576 3.484C45.32 3.59867 44.9893 3.656 44.584 3.656H43.064V5.848H42.064V0.136ZM43.064 2.84H44.528C44.64 2.84 44.7546 2.824 44.872 2.792C44.9893 2.76 45.0973 2.708 45.196 2.636C45.2946 2.564 45.3746 2.468 45.436 2.348C45.4973 2.228 45.528 2.07733 45.528 1.896C45.528 1.70933 45.5013 1.55467 45.448 1.432C45.3946 1.30933 45.3226 1.212 45.232 1.14C45.1413 1.068 45.0373 1.01867 44.92 0.992C44.8026 0.965333 44.6773 0.952 44.544 0.952H43.064V2.84ZM49.832 0.816C49.528 0.816 49.2653 0.877333 49.044 1C48.8226 1.12267 48.6426 1.28667 48.504 1.492C48.3653 1.69733 48.2626 1.93067 48.196 2.192C48.1293 2.45333 48.096 2.72 48.096 2.992C48.096 3.264 48.1293 3.53067 48.196 3.792C48.2626 4.05333 48.3653 4.28667 48.504 4.492C48.6426 4.69733 48.8226 4.86133 49.044 4.984C49.2653 5.10667 49.528 5.168 49.832 5.168C50.136 5.168 50.3986 5.10667 50.62 4.984C50.8413 4.86133 51.0213 4.69733 51.16 4.492C51.2986 4.28667 51.4013 4.05333 51.468 3.792C51.5346 3.53067 51.568 3.264 51.568 2.992C51.568 2.72 51.5346 2.45333 51.468 2.192C51.4013 1.93067 51.2986 1.69733 51.16 1.492C51.0213 1.28667 50.8413 1.12267 50.62 1C50.3986 0.877333 50.136 0.816 49.832 0.816ZM49.832 0C50.2586 0 50.6413 0.0799992 50.98 0.24C51.3186 0.400001 51.6053 0.615999 51.84 0.888C52.0746 1.16 52.2546 1.47733 52.38 1.84C52.5053 2.20267 52.568 2.58666 52.568 2.992C52.568 3.40267 52.5053 3.78933 52.38 4.152C52.2546 4.51467 52.0746 4.832 51.84 5.104C51.6053 5.376 51.3186 5.59067 50.98 5.748C50.6413 5.90533 50.2586 5.984 49.832 5.984C49.4053 5.984 49.0226 5.90533 48.684 5.748C48.3453 5.59067 48.0586 5.376 47.824 5.104C47.5893 4.832 47.4093 4.51467 47.284 4.152C47.1586 3.78933 47.096 3.40267 47.096 2.992C47.096 2.58666 47.1586 2.20267 47.284 1.84C47.4093 1.47733 47.5893 1.16 47.824 0.888C48.0586 0.615999 48.3453 0.400001 48.684 0.24C49.0226 0.0799992 49.4053 0 49.832 0ZM52.92 0.136H53.936L54.968 4.504H54.984L56.136 0.136H57.16L58.28 4.504H58.296L59.36 0.136H60.376L58.8 5.848H57.784L56.64 1.48H56.624L55.456 5.848H54.424L52.92 0.136ZM61.032 0.136H65.144V1H62.032V2.496H64.912V3.312H62.032V4.984H65.2V5.848H61.032V0.136ZM66.072 0.136H68.8C69.4293 0.136 69.9013 0.271999 70.216 0.544C70.5306 0.816001 70.688 1.19466 70.688 1.68C70.688 1.952 70.648 2.17733 70.568 2.356C70.488 2.53467 70.3946 2.67867 70.288 2.788C70.1813 2.89733 70.076 2.976 69.972 3.024C69.868 3.072 69.792 3.104 69.744 3.12V3.136C69.8293 3.14667 69.9213 3.17333 70.02 3.216C70.1186 3.25867 70.2106 3.32667 70.296 3.42C70.3813 3.51333 70.452 3.63467 70.508 3.784C70.564 3.93333 70.592 4.12 70.592 4.344C70.592 4.68 70.6173 4.98533 70.668 5.26C70.7186 5.53467 70.7973 5.73067 70.904 5.848H69.832C69.7573 5.72533 69.7133 5.58933 69.7 5.44C69.6866 5.29067 69.68 5.14667 69.68 5.008C69.68 4.74667 69.664 4.52133 69.632 4.332C69.6 4.14267 69.5413 3.98533 69.456 3.86C69.3706 3.73467 69.2546 3.64267 69.108 3.584C68.9613 3.52533 68.7733 3.496 68.544 3.496H67.072V5.848H66.072V0.136ZM67.072 2.736H68.712C69.032 2.736 69.2746 2.66 69.44 2.508C69.6053 2.356 69.688 2.128 69.688 1.824C69.688 1.64267 69.6613 1.49467 69.608 1.38C69.5546 1.26533 69.4813 1.176 69.388 1.112C69.2946 1.048 69.188 1.00533 69.068 0.984C68.948 0.962667 68.824 0.952 68.696 0.952H67.072V2.736ZM71.704 0.136H75.816V1H72.704V2.496H75.584V3.312H72.704V4.984H75.872V5.848H71.704V0.136ZM76.744 0.136H79.112C79.5493 0.136 79.928 0.210666 80.248 0.36C80.568 0.509334 80.8293 0.713332 81.032 0.972C81.2346 1.23067 81.3853 1.53333 81.484 1.88C81.5826 2.22667 81.632 2.59733 81.632 2.992C81.632 3.38667 81.5826 3.75733 81.484 4.104C81.3853 4.45067 81.2346 4.75333 81.032 5.012C80.8293 5.27067 80.568 5.47467 80.248 5.624C79.928 5.77333 79.5493 5.848 79.112 5.848H76.744V0.136ZM77.744 5.032H78.728C79.1173 5.032 79.436 4.98 79.684 4.876C79.932 4.772 80.1266 4.628 80.268 4.444C80.4093 4.26 80.5053 4.044 80.556 3.796C80.6066 3.548 80.632 3.28 80.632 2.992C80.632 2.704 80.6066 2.436 80.556 2.188C80.5053 1.94 80.4093 1.724 80.268 1.54C80.1266 1.356 79.932 1.212 79.684 1.108C79.436 1.004 79.1173 0.952 78.728 0.952H77.744V5.032ZM85.744 2.528H87.376C87.616 2.528 87.816 2.46 87.976 2.324C88.136 2.188 88.216 1.992 88.216 1.736C88.216 1.448 88.144 1.24533 88 1.128C87.856 1.01067 87.648 0.952 87.376 0.952H85.744V2.528ZM84.744 0.136H87.52C88.032 0.136 88.4426 0.253332 88.752 0.488C89.0613 0.722668 89.216 1.07733 89.216 1.552C89.216 1.84 89.1453 2.08667 89.004 2.292C88.8626 2.49733 88.6613 2.656 88.4 2.768V2.784C88.752 2.85867 89.0186 3.02533 89.2 3.284C89.3813 3.54267 89.472 3.86666 89.472 4.256C89.472 4.48 89.432 4.68933 89.352 4.884C89.272 5.07867 89.1466 5.24667 88.976 5.388C88.8053 5.52933 88.5866 5.64133 88.32 5.724C88.0533 5.80667 87.736 5.848 87.368 5.848H84.744V0.136ZM85.744 5.032H87.512C87.816 5.032 88.052 4.95333 88.22 4.796C88.388 4.63867 88.472 4.416 88.472 4.128C88.472 3.84533 88.388 3.628 88.22 3.476C88.052 3.324 87.816 3.248 87.512 3.248H85.744V5.032ZM91.864 3.608L89.72 0.136H90.88L92.392 2.696L93.88 0.136H95L92.864 3.608V5.848H91.864V3.608Z" fill="#9B9B9B"/>
<path d="M19.0943 12.019H23.8756C24.4738 12.019 25.0269 12.1003 25.5371 12.2628C26.0473 12.4254 26.4852 12.6556 26.8532 12.9536C27.2211 13.2516 27.5078 13.6196 27.7133 14.0553C27.9187 14.491 28.0203 14.9899 28.0203 15.5497C28.0203 16.1096 27.8826 16.6446 27.6094 17.0803C27.3363 17.516 26.9615 17.8591 26.4897 18.1074C27.2369 18.3693 27.8081 18.7711 28.2077 19.3129C28.605 19.8547 28.8059 20.5048 28.8059 21.2633C28.8059 21.8616 28.6975 22.3966 28.4785 22.8684C28.2596 23.3424 27.9526 23.742 27.5552 24.0739C27.1557 24.4035 26.6681 24.6563 26.0902 24.8301C25.5123 25.0039 24.8666 25.092 24.1578 25.092H19.0966V12.019H19.0943ZM23.5957 17.2293C24.081 17.2293 24.4829 17.1074 24.8012 16.8658C25.1195 16.622 25.2775 16.2653 25.2775 15.7913C25.2775 15.3172 25.1195 14.9605 24.8012 14.7167C24.4829 14.4729 24.081 14.3533 23.5957 14.3533H21.8394V17.2293H23.5957ZM23.9885 22.7374C24.5867 22.7374 25.0653 22.5997 25.4265 22.3266C25.7877 22.0534 25.9683 21.6471 25.9683 21.1121C25.9683 20.5771 25.7877 20.1888 25.4265 19.9066C25.0653 19.6267 24.5867 19.4867 23.9885 19.4867H21.8416V22.7352H23.9885V22.7374Z" fill="#214538"/>
<path d="M35.8186 15.8657H38.5456V25.0919H35.8186V23.9158C35.5455 24.3515 35.1798 24.6969 34.726 24.952C34.2723 25.2071 33.7395 25.3358 33.13 25.3358C32.0712 25.3358 31.2428 24.9994 30.6468 24.3267C30.0486 23.6539 29.7506 22.7329 29.7506 21.5635V15.868H32.4776V20.9111C32.4776 21.5207 32.6176 21.9947 32.8975 22.3311C33.1774 22.6674 33.5792 22.8345 34.103 22.8345C34.6267 22.8345 35.0421 22.6516 35.3536 22.2837C35.6651 21.9157 35.8209 21.4033 35.8209 20.7418V15.868L35.8186 15.8657Z" fill="#214538"/>
<path d="M43.3605 22.8706H46.9634V25.0919H39.2384L43.1641 18.0893H39.5002V15.8679H47.1033L43.3582 22.8706H43.3605Z" fill="#214538"/>
<path d="M51.4997 22.8706H55.1026V25.0919H47.3776L51.3033 18.0893H47.6395V15.8679H55.2426L51.4975 22.8706H51.4997Z" fill="#214538"/>
<path d="M55.8496 21.6562C56.3485 22.0558 56.9039 22.3854 57.5201 22.645C58.1364 22.9068 58.7505 23.0378 59.36 23.0378C60.1569 23.0378 60.5542 22.8007 60.5542 22.3289C60.5542 22.0919 60.4368 21.9203 60.1997 21.8165C59.9627 21.7104 59.6647 21.6246 59.3035 21.5546C58.9423 21.4869 58.5563 21.4124 58.1455 21.3311C57.7346 21.2499 57.3486 21.1189 56.9874 20.9383C56.6262 20.7577 56.3282 20.5049 56.0912 20.1821C55.8541 19.8593 55.7368 19.41 55.7368 18.8366C55.7368 17.8908 56.0754 17.1187 56.7549 16.5205C57.4344 15.9223 58.396 15.6243 59.6399 15.6243C60.2246 15.6243 60.7889 15.6988 61.3307 15.8478C61.8725 15.9967 62.3601 16.1773 62.7958 16.3895V19.173C62.3353 18.7508 61.8251 18.4258 61.2653 18.2023C60.7054 17.9788 60.132 17.8659 59.5473 17.8659C59.0981 17.8659 58.7888 17.9336 58.6128 18.0714C58.4389 18.2091 58.3509 18.3693 58.3509 18.5567C58.3509 18.7689 58.4728 18.9247 58.7143 19.024C58.9581 19.1233 59.2584 19.2069 59.6196 19.2768C59.9808 19.3446 60.3736 19.4258 60.7957 19.5206C61.2179 19.6132 61.6107 19.7577 61.9718 19.9496C62.333 20.1437 62.6355 20.4101 62.8771 20.7532C63.1209 21.0963 63.2405 21.5524 63.2405 22.1257C63.2405 22.6495 63.1412 23.11 62.9426 23.5073C62.7439 23.9069 62.4685 24.2387 62.1208 24.5074C61.7732 24.776 61.3623 24.9814 60.8883 25.1236C60.4142 25.2659 59.9108 25.3381 59.3758 25.3381C58.6286 25.3381 57.9649 25.2591 57.387 25.1056C56.809 24.9498 56.2943 24.7489 55.8474 24.4983V21.6607L55.8496 21.6562Z" fill="#214538"/>
<path d="M64.2522 28.9771V15.8658H66.9589V17.0984C67.2817 16.6243 67.7084 16.2654 68.2389 16.0148C68.7671 15.7665 69.3382 15.6423 69.9478 15.6423C70.5573 15.6423 71.1465 15.7665 71.6747 16.0148C72.203 16.2631 72.6635 16.604 73.0563 17.0329C73.4491 17.4618 73.7561 17.972 73.9796 18.5635C74.2031 19.1549 74.3159 19.7938 74.3159 20.4778C74.3159 21.1618 74.2031 21.7984 73.9796 22.3831C73.7561 22.9678 73.4468 23.478 73.0563 23.9137C72.6635 24.3493 72.203 24.6925 71.6747 24.9408C71.1465 25.1891 70.5686 25.3133 69.9478 25.3133C69.327 25.3133 68.7671 25.1982 68.2389 24.9679C67.7106 24.7376 67.284 24.3787 66.9589 23.8933V28.9726H64.2522V28.9771ZM71.6093 20.4801C71.6093 20.1437 71.546 19.8322 71.4219 19.5455C71.2977 19.2588 71.1284 19.0082 70.9185 18.7892C70.7063 18.5725 70.4579 18.4009 70.1713 18.2768C69.8846 18.1526 69.573 18.0894 69.2367 18.0894C68.9003 18.0894 68.5888 18.1526 68.3021 18.2768C68.0154 18.4009 67.7671 18.5725 67.5549 18.7892C67.3427 19.0082 67.1756 19.2588 67.0514 19.5455C66.9273 19.8322 66.8641 20.1437 66.8641 20.4801C66.8641 20.8164 66.9273 21.128 67.0514 21.4147C67.1756 21.7013 67.3449 21.9542 67.5549 22.1709C67.7671 22.3899 68.0154 22.5592 68.3021 22.6856C68.5888 22.8098 68.9003 22.873 69.2367 22.873C69.573 22.873 69.8846 22.8098 70.1713 22.6856C70.4579 22.5614 70.7063 22.3899 70.9185 22.1709C71.1307 21.9542 71.2977 21.7013 71.4219 21.4147C71.546 21.128 71.6093 20.8164 71.6093 20.4801Z" fill="#214538"/>
<path d="M81.2286 18.5183C81.0796 18.4438 80.8494 18.4055 80.5378 18.4055C79.7793 18.4055 79.1879 18.6673 78.7635 19.1888C78.3391 19.7125 78.1291 20.4282 78.1291 21.3357V25.0898H75.4224V15.8658H78.1111V17.3783C78.3594 16.8433 78.7138 16.4234 79.1766 16.1187C79.6371 15.8139 80.1653 15.6604 80.7636 15.6604C80.8629 15.6604 80.96 15.6672 81.0525 15.6785C81.1451 15.692 81.2038 15.7033 81.2309 15.7168V18.5183H81.2286Z" fill="#214538"/>
<path d="M81.3202 20.48C81.3202 19.796 81.4489 19.1571 81.704 18.5657C81.9591 17.9742 82.3112 17.4618 82.7582 17.0261C83.2074 16.5904 83.7357 16.2473 84.3452 15.9989C84.9547 15.7506 85.6161 15.6265 86.325 15.6265C87.0338 15.6265 87.6953 15.7506 88.3048 15.9989C88.9143 16.2473 89.4448 16.5904 89.8918 17.0261C90.341 17.4618 90.6909 17.9765 90.946 18.5657C91.2011 19.1571 91.3298 19.796 91.3298 20.48C91.3298 21.164 91.2011 21.8029 90.946 22.3943C90.6909 22.9858 90.3387 23.4982 89.8918 23.9339C89.4425 24.3696 88.9143 24.7127 88.3048 24.9611C87.6953 25.2094 87.0338 25.3335 86.325 25.3335C85.6161 25.3335 84.9547 25.2094 84.3452 24.9611C83.7357 24.7127 83.2052 24.3696 82.7582 23.9339C82.309 23.4982 81.9591 22.9858 81.704 22.3943C81.4489 21.8029 81.3202 21.164 81.3202 20.48ZM84.0088 20.48C84.0088 20.8164 84.072 21.1279 84.1962 21.4146C84.3203 21.7013 84.4851 21.9496 84.6906 22.1618C84.896 22.374 85.1398 22.5411 85.4197 22.6652C85.6997 22.7894 86.0022 22.8526 86.325 22.8526C86.6478 22.8526 86.9345 22.7894 87.2212 22.6652C87.5079 22.5411 87.7539 22.3717 87.9594 22.1618C88.1648 21.9496 88.3296 21.7013 88.4538 21.4146C88.5779 21.1279 88.6411 20.8164 88.6411 20.48C88.6411 20.1436 88.5779 19.8321 88.4538 19.5454C88.3296 19.2587 88.1648 19.0104 87.9594 18.7982C87.7539 18.586 87.5079 18.4189 87.2212 18.2948C86.9345 18.1706 86.6365 18.1074 86.325 18.1074C86.0134 18.1074 85.6997 18.1706 85.4197 18.2948C85.1398 18.4189 84.896 18.5882 84.6906 18.7982C84.4851 19.0104 84.3203 19.2587 84.1962 19.5454C84.072 19.8321 84.0088 20.1436 84.0088 20.48Z" fill="#214538"/>
<path d="M98.3704 15.8657H101.097V25.0919H98.3704V23.9158C98.0973 24.3515 97.7316 24.6969 97.2778 24.952C96.8241 25.2071 96.2913 25.3358 95.6818 25.3358C94.623 25.3358 93.7945 24.9994 93.1986 24.3267C92.6004 23.6539 92.3024 22.7329 92.3024 21.5635V15.868H95.0294V20.9111C95.0294 21.5207 95.1693 21.9947 95.4493 22.3311C95.7292 22.6674 96.131 22.8345 96.6547 22.8345C97.1785 22.8345 97.5938 22.6516 97.9054 22.2837C98.2169 21.9157 98.3727 21.4033 98.3727 20.7418V15.868L98.3704 15.8657Z" fill="#214538"/>
<path d="M106.062 13.2676L103.836 13.2811C103.836 13.2811 104.01 15.3896 101.888 15.8659V18.1076H103.353V22.1416C103.353 23.1756 103.622 23.9634 104.157 24.5052C104.692 25.047 105.453 25.3179 106.435 25.3179C106.87 25.3179 107.254 25.2795 107.584 25.205C107.913 25.1305 108.184 25.038 108.396 24.9251V22.5344C108.259 22.6338 108.098 22.715 107.911 22.7782C107.724 22.8415 107.539 22.8708 107.351 22.8708C106.916 22.8708 106.593 22.7647 106.381 22.5525C106.168 22.3403 106.062 21.9859 106.062 21.487V18.1076H108.396V15.8659H106.062V13.2676Z" fill="#214538"/>
<path d="M7.7766 14.279L7.78337 10.1772H7.68179L3.4942 18.0016H7.77886L7.7766 22.0786H7.8669L12.0635 14.279H7.7766Z" fill="#61D752"/>
<path d="M5.52723 20.2475C4.21339 18.9337 2.46612 18.209 0.608235 18.2068H0.49762L0.502135 18.3174C0.581146 20.1392 1.33514 21.8548 2.62866 23.1461C3.91992 24.4374 5.63559 25.1936 7.45736 25.2726L7.56797 25.2771V25.1665C7.56797 23.3086 6.84107 21.5614 5.52723 20.2475Z" fill="#214538"/>
<path d="M14.9475 18.2068C13.0896 18.2068 11.3423 18.9337 10.0285 20.2475C8.71463 21.5614 7.98999 23.3086 7.98773 25.1665V25.2771L8.09835 25.2726C9.92011 25.1936 11.6358 24.4396 12.927 23.1461C14.2183 21.8548 14.9746 20.1392 15.0536 18.3174L15.0581 18.2068H14.9475Z" fill="#214538"/>
</svg>
