<svg xmlns="http://www.w3.org/2000/svg" xmlns:xlink="http://www.w3.org/1999/xlink" width="250" zoomAndPan="magnify" viewBox="0 0 187.5 74.999997" height="100" preserveAspectRatio="xMidYMid meet" version="1.0"><defs><g/><clipPath id="ee37758848"><path d="M 117 5 L 127 5 L 127 16.902344 L 117 16.902344 Z M 117 5 " clip-rule="nonzero"/></clipPath><clipPath id="6e17e01017"><rect x="0" width="128" y="0" height="17"/></clipPath><clipPath id="d1b720505a"><path d="M 0.601562 1 L 5 1 L 5 7 L 0.601562 7 Z M 0.601562 1 " clip-rule="nonzero"/></clipPath><clipPath id="84fc67a918"><path d="M 109 1 L 112.863281 1 L 112.863281 7 L 109 7 Z M 109 1 " clip-rule="nonzero"/></clipPath><clipPath id="f76c3a872b"><rect x="0" width="113" y="0" height="8"/></clipPath><clipPath id="409849d990"><path d="M 25 51 L 29 51 L 29 58.316406 L 25 58.316406 Z M 25 51 " clip-rule="nonzero"/></clipPath><clipPath id="9d1b49eec6"><path d="M 5.949219 16.453125 L 47.839844 16.453125 L 47.839844 55 L 5.949219 55 Z M 5.949219 16.453125 " clip-rule="nonzero"/></clipPath></defs><g transform="matrix(1, 0, 0, 1, 52, 27)"><g clip-path="url(#6e17e01017)"><g fill="#2c3892" fill-opacity="1"><g transform="translate(0.588206, 13.397805)"><g><path d="M 5.75 0.171875 C 4.769531 0.171875 3.878906 -0.0390625 3.078125 -0.46875 C 2.285156 -0.894531 1.660156 -1.484375 1.203125 -2.234375 C 0.753906 -2.992188 0.53125 -3.851562 0.53125 -4.8125 C 0.53125 -5.769531 0.753906 -6.625 1.203125 -7.375 C 1.660156 -8.132812 2.285156 -8.726562 3.078125 -9.15625 C 3.878906 -9.582031 4.773438 -9.796875 5.765625 -9.796875 C 6.597656 -9.796875 7.347656 -9.644531 8.015625 -9.34375 C 8.691406 -9.050781 9.257812 -8.628906 9.71875 -8.078125 L 8.296875 -6.765625 C 7.640625 -7.515625 6.832031 -7.890625 5.875 -7.890625 C 5.28125 -7.890625 4.75 -7.757812 4.28125 -7.5 C 3.8125 -7.238281 3.445312 -6.875 3.1875 -6.40625 C 2.925781 -5.9375 2.796875 -5.40625 2.796875 -4.8125 C 2.796875 -4.21875 2.925781 -3.6875 3.1875 -3.21875 C 3.445312 -2.75 3.8125 -2.382812 4.28125 -2.125 C 4.75 -1.863281 5.28125 -1.734375 5.875 -1.734375 C 6.832031 -1.734375 7.640625 -2.113281 8.296875 -2.875 L 9.71875 -1.546875 C 9.257812 -0.992188 8.691406 -0.566406 8.015625 -0.265625 C 7.335938 0.0234375 6.582031 0.171875 5.75 0.171875 Z M 5.75 0.171875 "/></g></g></g><g fill="#2c3892" fill-opacity="1"><g transform="translate(10.21606, 13.397805)"><g><path d="M 3.96875 -7.5 C 5.113281 -7.5 5.992188 -7.226562 6.609375 -6.6875 C 7.222656 -6.144531 7.53125 -5.320312 7.53125 -4.21875 L 7.53125 0 L 5.53125 0 L 5.53125 -0.921875 C 5.125 -0.234375 4.367188 0.109375 3.265625 0.109375 C 2.703125 0.109375 2.210938 0.015625 1.796875 -0.171875 C 1.378906 -0.367188 1.0625 -0.632812 0.84375 -0.96875 C 0.625 -1.3125 0.515625 -1.695312 0.515625 -2.125 C 0.515625 -2.8125 0.769531 -3.351562 1.28125 -3.75 C 1.800781 -4.144531 2.601562 -4.34375 3.6875 -4.34375 L 5.390625 -4.34375 C 5.390625 -4.8125 5.242188 -5.171875 4.953125 -5.421875 C 4.671875 -5.671875 4.25 -5.796875 3.6875 -5.796875 C 3.289062 -5.796875 2.898438 -5.734375 2.515625 -5.609375 C 2.140625 -5.492188 1.816406 -5.328125 1.546875 -5.109375 L 0.78125 -6.609375 C 1.1875 -6.898438 1.671875 -7.117188 2.234375 -7.265625 C 2.796875 -7.421875 3.375 -7.5 3.96875 -7.5 Z M 3.8125 -1.328125 C 4.175781 -1.328125 4.5 -1.410156 4.78125 -1.578125 C 5.070312 -1.753906 5.273438 -2.007812 5.390625 -2.34375 L 5.390625 -3.09375 L 3.921875 -3.09375 C 3.035156 -3.09375 2.59375 -2.804688 2.59375 -2.234375 C 2.59375 -1.953125 2.703125 -1.726562 2.921875 -1.5625 C 3.140625 -1.40625 3.4375 -1.328125 3.8125 -1.328125 Z M 3.8125 -1.328125 "/></g></g></g><g fill="#2c3892" fill-opacity="1"><g transform="translate(18.248438, 13.397805)"><g><path d="M 5.484375 -7.5 C 6.398438 -7.5 7.140625 -7.222656 7.703125 -6.671875 C 8.265625 -6.128906 8.546875 -5.316406 8.546875 -4.234375 L 8.546875 0 L 6.40625 0 L 6.40625 -3.90625 C 6.40625 -4.488281 6.273438 -4.925781 6.015625 -5.21875 C 5.765625 -5.507812 5.394531 -5.65625 4.90625 -5.65625 C 4.363281 -5.65625 3.929688 -5.484375 3.609375 -5.140625 C 3.296875 -4.804688 3.140625 -4.3125 3.140625 -3.65625 L 3.140625 0 L 0.984375 0 L 0.984375 -7.390625 L 3.03125 -7.390625 L 3.03125 -6.53125 C 3.320312 -6.84375 3.675781 -7.082031 4.09375 -7.25 C 4.519531 -7.414062 4.984375 -7.5 5.484375 -7.5 Z M 5.484375 -7.5 "/></g></g></g><g fill="#2c3892" fill-opacity="1"><g transform="translate(27.298622, 13.397805)"><g><path d="M 3.96875 -7.5 C 5.113281 -7.5 5.992188 -7.226562 6.609375 -6.6875 C 7.222656 -6.144531 7.53125 -5.320312 7.53125 -4.21875 L 7.53125 0 L 5.53125 0 L 5.53125 -0.921875 C 5.125 -0.234375 4.367188 0.109375 3.265625 0.109375 C 2.703125 0.109375 2.210938 0.015625 1.796875 -0.171875 C 1.378906 -0.367188 1.0625 -0.632812 0.84375 -0.96875 C 0.625 -1.3125 0.515625 -1.695312 0.515625 -2.125 C 0.515625 -2.8125 0.769531 -3.351562 1.28125 -3.75 C 1.800781 -4.144531 2.601562 -4.34375 3.6875 -4.34375 L 5.390625 -4.34375 C 5.390625 -4.8125 5.242188 -5.171875 4.953125 -5.421875 C 4.671875 -5.671875 4.25 -5.796875 3.6875 -5.796875 C 3.289062 -5.796875 2.898438 -5.734375 2.515625 -5.609375 C 2.140625 -5.492188 1.816406 -5.328125 1.546875 -5.109375 L 0.78125 -6.609375 C 1.1875 -6.898438 1.671875 -7.117188 2.234375 -7.265625 C 2.796875 -7.421875 3.375 -7.5 3.96875 -7.5 Z M 3.8125 -1.328125 C 4.175781 -1.328125 4.5 -1.410156 4.78125 -1.578125 C 5.070312 -1.753906 5.273438 -2.007812 5.390625 -2.34375 L 5.390625 -3.09375 L 3.921875 -3.09375 C 3.035156 -3.09375 2.59375 -2.804688 2.59375 -2.234375 C 2.59375 -1.953125 2.703125 -1.726562 2.921875 -1.5625 C 3.140625 -1.40625 3.4375 -1.328125 3.8125 -1.328125 Z M 3.8125 -1.328125 "/></g></g></g><g fill="#2c3892" fill-opacity="1"><g transform="translate(35.330999, 13.397805)"><g><path d="M 8.53125 -10.203125 L 8.53125 0 L 6.46875 0 L 6.46875 -0.859375 C 5.9375 -0.210938 5.171875 0.109375 4.171875 0.109375 C 3.472656 0.109375 2.84375 -0.046875 2.28125 -0.359375 C 1.71875 -0.671875 1.273438 -1.113281 0.953125 -1.6875 C 0.628906 -2.269531 0.46875 -2.941406 0.46875 -3.703125 C 0.46875 -4.460938 0.628906 -5.128906 0.953125 -5.703125 C 1.273438 -6.285156 1.71875 -6.726562 2.28125 -7.03125 C 2.84375 -7.34375 3.472656 -7.5 4.171875 -7.5 C 5.109375 -7.5 5.84375 -7.203125 6.375 -6.609375 L 6.375 -10.203125 Z M 4.53125 -1.65625 C 5.070312 -1.65625 5.519531 -1.835938 5.875 -2.203125 C 6.238281 -2.578125 6.421875 -3.078125 6.421875 -3.703125 C 6.421875 -4.328125 6.238281 -4.820312 5.875 -5.1875 C 5.519531 -5.5625 5.070312 -5.75 4.53125 -5.75 C 3.988281 -5.75 3.535156 -5.5625 3.171875 -5.1875 C 2.816406 -4.820312 2.640625 -4.328125 2.640625 -3.703125 C 2.640625 -3.078125 2.816406 -2.578125 3.171875 -2.203125 C 3.535156 -1.835938 3.988281 -1.65625 4.53125 -1.65625 Z M 4.53125 -1.65625 "/></g></g></g><g fill="#2c3892" fill-opacity="1"><g transform="translate(44.394936, 13.397805)"><g><path d="M 3.96875 -7.5 C 5.113281 -7.5 5.992188 -7.226562 6.609375 -6.6875 C 7.222656 -6.144531 7.53125 -5.320312 7.53125 -4.21875 L 7.53125 0 L 5.53125 0 L 5.53125 -0.921875 C 5.125 -0.234375 4.367188 0.109375 3.265625 0.109375 C 2.703125 0.109375 2.210938 0.015625 1.796875 -0.171875 C 1.378906 -0.367188 1.0625 -0.632812 0.84375 -0.96875 C 0.625 -1.3125 0.515625 -1.695312 0.515625 -2.125 C 0.515625 -2.8125 0.769531 -3.351562 1.28125 -3.75 C 1.800781 -4.144531 2.601562 -4.34375 3.6875 -4.34375 L 5.390625 -4.34375 C 5.390625 -4.8125 5.242188 -5.171875 4.953125 -5.421875 C 4.671875 -5.671875 4.25 -5.796875 3.6875 -5.796875 C 3.289062 -5.796875 2.898438 -5.734375 2.515625 -5.609375 C 2.140625 -5.492188 1.816406 -5.328125 1.546875 -5.109375 L 0.78125 -6.609375 C 1.1875 -6.898438 1.671875 -7.117188 2.234375 -7.265625 C 2.796875 -7.421875 3.375 -7.5 3.96875 -7.5 Z M 3.8125 -1.328125 C 4.175781 -1.328125 4.5 -1.410156 4.78125 -1.578125 C 5.070312 -1.753906 5.273438 -2.007812 5.390625 -2.34375 L 5.390625 -3.09375 L 3.921875 -3.09375 C 3.035156 -3.09375 2.59375 -2.804688 2.59375 -2.234375 C 2.59375 -1.953125 2.703125 -1.726562 2.921875 -1.5625 C 3.140625 -1.40625 3.4375 -1.328125 3.8125 -1.328125 Z M 3.8125 -1.328125 "/></g></g></g><g fill="#ed1c23" fill-opacity="1"><g transform="translate(52.427513, 13.397805)"><g><path d="M 7.65625 -3.3125 L 1.609375 -3.3125 C 1.660156 -2.5625 1.945312 -1.953125 2.46875 -1.484375 C 3 -1.023438 3.660156 -0.796875 4.453125 -0.796875 C 4.898438 -0.796875 5.3125 -0.875 5.6875 -1.03125 C 6.0625 -1.195312 6.390625 -1.4375 6.671875 -1.75 L 7.21875 -1.109375 C 6.894531 -0.722656 6.492188 -0.429688 6.015625 -0.234375 C 5.535156 -0.0351562 5.003906 0.0625 4.421875 0.0625 C 3.679688 0.0625 3.023438 -0.09375 2.453125 -0.40625 C 1.878906 -0.71875 1.429688 -1.15625 1.109375 -1.71875 C 0.785156 -2.28125 0.625 -2.910156 0.625 -3.609375 C 0.625 -4.316406 0.773438 -4.953125 1.078125 -5.515625 C 1.390625 -6.078125 1.8125 -6.507812 2.34375 -6.8125 C 2.882812 -7.125 3.492188 -7.28125 4.171875 -7.28125 C 4.835938 -7.28125 5.4375 -7.125 5.96875 -6.8125 C 6.5 -6.507812 6.914062 -6.078125 7.21875 -5.515625 C 7.519531 -4.960938 7.671875 -4.328125 7.671875 -3.609375 Z M 4.171875 -6.453125 C 3.472656 -6.453125 2.882812 -6.226562 2.40625 -5.78125 C 1.9375 -5.332031 1.671875 -4.753906 1.609375 -4.046875 L 6.734375 -4.046875 C 6.671875 -4.753906 6.398438 -5.332031 5.921875 -5.78125 C 5.453125 -6.226562 4.867188 -6.453125 4.171875 -6.453125 Z M 4.171875 -6.453125 "/></g></g></g><g fill="#2c3892" fill-opacity="1"><g transform="translate(60.281401, 13.397805)"><g><path d="M 7.40625 -1.875 L 3.34375 -1.875 L 2.578125 0 L -0.1875 0 L 4.0625 -9.625 L 6.734375 -9.625 L 11 0 L 8.171875 0 Z M 6.609375 -3.875 L 5.375 -6.953125 L 4.140625 -3.875 Z M 6.609375 -3.875 "/></g></g></g><g fill="#2c3892" fill-opacity="1"><g transform="translate(70.638224, 13.397805)"><g><path d="M 4.640625 0.125 C 3.816406 0.125 3.078125 -0.0351562 2.421875 -0.359375 C 1.773438 -0.691406 1.269531 -1.148438 0.90625 -1.734375 C 0.550781 -2.328125 0.375 -2.992188 0.375 -3.734375 C 0.375 -4.484375 0.550781 -5.144531 0.90625 -5.71875 C 1.269531 -6.300781 1.773438 -6.753906 2.421875 -7.078125 C 3.078125 -7.410156 3.816406 -7.578125 4.640625 -7.578125 C 5.484375 -7.578125 6.210938 -7.394531 6.828125 -7.03125 C 7.441406 -6.664062 7.878906 -6.164062 8.140625 -5.53125 L 6.125 -4.5 C 5.78125 -5.164062 5.285156 -5.5 4.640625 -5.5 C 4.171875 -5.5 3.78125 -5.34375 3.46875 -5.03125 C 3.164062 -4.71875 3.015625 -4.285156 3.015625 -3.734375 C 3.015625 -3.179688 3.164062 -2.742188 3.46875 -2.421875 C 3.78125 -2.109375 4.171875 -1.953125 4.640625 -1.953125 C 5.285156 -1.953125 5.78125 -2.285156 6.125 -2.953125 L 8.140625 -1.921875 C 7.878906 -1.285156 7.441406 -0.785156 6.828125 -0.421875 C 6.210938 -0.0546875 5.484375 0.125 4.640625 0.125 Z M 4.640625 0.125 "/></g></g></g><g fill="#2c3892" fill-opacity="1"><g transform="translate(78.478045, 13.397805)"><g><path d="M 4.015625 -7.578125 C 5.253906 -7.578125 6.195312 -7.296875 6.84375 -6.734375 C 7.5 -6.171875 7.828125 -5.304688 7.828125 -4.140625 L 7.828125 0 L 5.390625 0 L 5.390625 -0.96875 C 5.015625 -0.238281 4.28125 0.125 3.1875 0.125 C 2.613281 0.125 2.113281 0.0234375 1.6875 -0.171875 C 1.269531 -0.378906 0.953125 -0.65625 0.734375 -1 C 0.515625 -1.34375 0.40625 -1.734375 0.40625 -2.171875 C 0.40625 -2.878906 0.675781 -3.425781 1.21875 -3.8125 C 1.757812 -4.207031 2.59375 -4.40625 3.71875 -4.40625 L 5.21875 -4.40625 C 5.164062 -5.1875 4.632812 -5.578125 3.625 -5.578125 C 3.269531 -5.578125 2.910156 -5.519531 2.546875 -5.40625 C 2.179688 -5.289062 1.867188 -5.132812 1.609375 -4.9375 L 0.734375 -6.703125 C 1.140625 -6.984375 1.640625 -7.195312 2.234375 -7.34375 C 2.828125 -7.5 3.421875 -7.578125 4.015625 -7.578125 Z M 3.921875 -1.53125 C 4.222656 -1.53125 4.488281 -1.601562 4.71875 -1.75 C 4.945312 -1.894531 5.113281 -2.109375 5.21875 -2.390625 L 5.21875 -3.03125 L 4.078125 -3.03125 C 3.316406 -3.03125 2.9375 -2.78125 2.9375 -2.28125 C 2.9375 -2.050781 3.023438 -1.867188 3.203125 -1.734375 C 3.378906 -1.597656 3.617188 -1.53125 3.921875 -1.53125 Z M 3.921875 -1.53125 "/></g></g></g><g fill="#2c3892" fill-opacity="1"><g transform="translate(86.66172, 13.397805)"><g><path d="M 8.765625 -10.203125 L 8.765625 0 L 6.265625 0 L 6.265625 -0.75 C 5.785156 -0.164062 5.054688 0.125 4.078125 0.125 C 3.398438 0.125 2.78125 -0.03125 2.21875 -0.34375 C 1.664062 -0.664062 1.222656 -1.117188 0.890625 -1.703125 C 0.566406 -2.285156 0.40625 -2.960938 0.40625 -3.734375 C 0.40625 -4.503906 0.566406 -5.179688 0.890625 -5.765625 C 1.222656 -6.347656 1.664062 -6.796875 2.21875 -7.109375 C 2.78125 -7.421875 3.398438 -7.578125 4.078125 -7.578125 C 4.972656 -7.578125 5.660156 -7.320312 6.140625 -6.8125 L 6.140625 -10.203125 Z M 4.640625 -1.953125 C 5.085938 -1.953125 5.457031 -2.109375 5.75 -2.421875 C 6.039062 -2.742188 6.1875 -3.179688 6.1875 -3.734375 C 6.1875 -4.285156 6.039062 -4.71875 5.75 -5.03125 C 5.46875 -5.34375 5.097656 -5.5 4.640625 -5.5 C 4.179688 -5.5 3.800781 -5.34375 3.5 -5.03125 C 3.207031 -4.71875 3.0625 -4.285156 3.0625 -3.734375 C 3.0625 -3.179688 3.207031 -2.742188 3.5 -2.421875 C 3.800781 -2.109375 4.179688 -1.953125 4.640625 -1.953125 Z M 4.640625 -1.953125 "/></g></g></g><g fill="#2c3892" fill-opacity="1"><g transform="translate(95.80818, 13.397805)"><g><path d="M 8.453125 -3.71875 C 8.453125 -3.695312 8.441406 -3.476562 8.421875 -3.0625 L 3 -3.0625 C 3.101562 -2.675781 3.3125 -2.378906 3.625 -2.171875 C 3.945312 -1.972656 4.347656 -1.875 4.828125 -1.875 C 5.179688 -1.875 5.488281 -1.921875 5.75 -2.015625 C 6.007812 -2.117188 6.273438 -2.285156 6.546875 -2.515625 L 7.921875 -1.09375 C 7.191406 -0.28125 6.132812 0.125 4.75 0.125 C 3.875 0.125 3.101562 -0.0351562 2.4375 -0.359375 C 1.78125 -0.691406 1.269531 -1.148438 0.90625 -1.734375 C 0.550781 -2.328125 0.375 -2.992188 0.375 -3.734375 C 0.375 -4.472656 0.550781 -5.132812 0.90625 -5.71875 C 1.257812 -6.300781 1.742188 -6.753906 2.359375 -7.078125 C 2.984375 -7.410156 3.6875 -7.578125 4.46875 -7.578125 C 5.207031 -7.578125 5.878906 -7.421875 6.484375 -7.109375 C 7.085938 -6.804688 7.566406 -6.363281 7.921875 -5.78125 C 8.273438 -5.195312 8.453125 -4.507812 8.453125 -3.71875 Z M 4.484375 -5.71875 C 4.078125 -5.71875 3.738281 -5.601562 3.46875 -5.375 C 3.195312 -5.144531 3.023438 -4.832031 2.953125 -4.4375 L 6.015625 -4.4375 C 5.941406 -4.832031 5.769531 -5.144531 5.5 -5.375 C 5.226562 -5.601562 4.890625 -5.71875 4.484375 -5.71875 Z M 4.484375 -5.71875 "/></g></g></g><g fill="#2c3892" fill-opacity="1"><g transform="translate(104.184412, 13.397805)"><g><path d="M 10.546875 -7.578125 C 11.460938 -7.578125 12.191406 -7.300781 12.734375 -6.75 C 13.285156 -6.195312 13.5625 -5.367188 13.5625 -4.265625 L 13.5625 0 L 10.9375 0 L 10.9375 -3.84375 C 10.9375 -4.363281 10.835938 -4.742188 10.640625 -4.984375 C 10.453125 -5.234375 10.175781 -5.359375 9.8125 -5.359375 C 9.414062 -5.359375 9.097656 -5.21875 8.859375 -4.9375 C 8.628906 -4.664062 8.515625 -4.253906 8.515625 -3.703125 L 8.515625 0 L 5.90625 0 L 5.90625 -3.84375 C 5.90625 -4.851562 5.523438 -5.359375 4.765625 -5.359375 C 4.367188 -5.359375 4.050781 -5.21875 3.8125 -4.9375 C 3.570312 -4.664062 3.453125 -4.253906 3.453125 -3.703125 L 3.453125 0 L 0.84375 0 L 0.84375 -7.453125 L 3.328125 -7.453125 L 3.328125 -6.671875 C 3.597656 -6.972656 3.921875 -7.195312 4.296875 -7.34375 C 4.679688 -7.5 5.101562 -7.578125 5.5625 -7.578125 C 6.082031 -7.578125 6.546875 -7.476562 6.953125 -7.28125 C 7.367188 -7.09375 7.707031 -6.800781 7.96875 -6.40625 C 8.257812 -6.78125 8.628906 -7.066406 9.078125 -7.265625 C 9.523438 -7.472656 10.015625 -7.578125 10.546875 -7.578125 Z M 10.546875 -7.578125 "/></g></g></g><g clip-path="url(#ee37758848)"><g fill="#2c3892" fill-opacity="1"><g transform="translate(118.103546, 13.397805)"><g><path d="M 8.6875 -7.453125 L 5.46875 0.296875 C 5.09375 1.210938 4.632812 1.859375 4.09375 2.234375 C 3.550781 2.609375 2.894531 2.796875 2.125 2.796875 C 1.726562 2.796875 1.328125 2.734375 0.921875 2.609375 C 0.523438 2.484375 0.203125 2.320312 -0.046875 2.125 L 0.859375 0.28125 C 1.015625 0.425781 1.191406 0.535156 1.390625 0.609375 C 1.597656 0.691406 1.804688 0.734375 2.015625 0.734375 C 2.265625 0.734375 2.46875 0.679688 2.625 0.578125 C 2.789062 0.472656 2.925781 0.3125 3.03125 0.09375 L -0.15625 -7.453125 L 2.53125 -7.453125 L 4.359375 -2.90625 L 6.203125 -7.453125 Z M 8.6875 -7.453125 "/></g></g></g></g></g></g><g transform="matrix(1, 0, 0, 1, 59, 43)"><g clip-path="url(#f76c3a872b)"><g clip-path="url(#d1b720505a)"><g fill="#ed1c22" fill-opacity="1"><g transform="translate(0.62798, 6.143288)"><g><path d="M 2.515625 0.078125 C 2.078125 0.078125 1.6875 -0.015625 1.34375 -0.203125 C 1 -0.390625 0.726562 -0.644531 0.53125 -0.96875 C 0.332031 -1.300781 0.234375 -1.675781 0.234375 -2.09375 C 0.234375 -2.507812 0.332031 -2.882812 0.53125 -3.21875 C 0.726562 -3.550781 1 -3.804688 1.34375 -3.984375 C 1.6875 -4.171875 2.078125 -4.265625 2.515625 -4.265625 C 2.878906 -4.265625 3.207031 -4.203125 3.5 -4.078125 C 3.789062 -3.953125 4.035156 -3.769531 4.234375 -3.53125 L 3.625 -2.953125 C 3.332031 -3.273438 2.976562 -3.4375 2.5625 -3.4375 C 2.300781 -3.4375 2.066406 -3.378906 1.859375 -3.265625 C 1.660156 -3.160156 1.503906 -3.003906 1.390625 -2.796875 C 1.273438 -2.585938 1.21875 -2.351562 1.21875 -2.09375 C 1.21875 -1.832031 1.273438 -1.597656 1.390625 -1.390625 C 1.503906 -1.191406 1.660156 -1.035156 1.859375 -0.921875 C 2.066406 -0.804688 2.300781 -0.75 2.5625 -0.75 C 2.976562 -0.75 3.332031 -0.914062 3.625 -1.25 L 4.234375 -0.671875 C 4.035156 -0.429688 3.785156 -0.242188 3.484375 -0.109375 C 3.191406 0.015625 2.867188 0.078125 2.515625 0.078125 Z M 2.515625 0.078125 "/></g></g></g></g><g fill="#ed1c22" fill-opacity="1"><g transform="translate(5.201514, 6.143288)"><g><path d="M 3.265625 -0.90625 L 1.3125 -0.90625 L 0.9375 0 L -0.046875 0 L 1.8125 -4.203125 L 2.78125 -4.203125 L 4.65625 0 L 3.640625 0 Z M 2.953125 -1.640625 L 2.296875 -3.25 L 1.625 -1.640625 Z M 2.953125 -1.640625 "/></g></g></g><g fill="#ed1c22" fill-opacity="1"><g transform="translate(9.972853, 6.143288)"><g><path d="M 4.34375 -4.203125 L 4.34375 0 L 3.546875 0 L 1.453125 -2.546875 L 1.453125 0 L 0.5 0 L 0.5 -4.203125 L 1.296875 -4.203125 L 3.390625 -1.65625 L 3.390625 -4.203125 Z M 4.34375 -4.203125 "/></g></g></g><g fill="#ed1c22" fill-opacity="1"><g transform="translate(14.995946, 6.143288)"><g><path d="M 3.265625 -0.90625 L 1.3125 -0.90625 L 0.9375 0 L -0.046875 0 L 1.8125 -4.203125 L 2.78125 -4.203125 L 4.65625 0 L 3.640625 0 Z M 2.953125 -1.640625 L 2.296875 -3.25 L 1.625 -1.640625 Z M 2.953125 -1.640625 "/></g></g></g><g fill="#ed1c22" fill-opacity="1"><g transform="translate(19.767285, 6.143288)"><g><path d="M 0.5 -4.203125 L 2.40625 -4.203125 C 2.863281 -4.203125 3.265625 -4.113281 3.609375 -3.9375 C 3.960938 -3.757812 4.234375 -3.515625 4.421875 -3.203125 C 4.617188 -2.890625 4.71875 -2.519531 4.71875 -2.09375 C 4.71875 -1.675781 4.617188 -1.304688 4.421875 -0.984375 C 4.234375 -0.671875 3.960938 -0.425781 3.609375 -0.25 C 3.265625 -0.0820312 2.863281 0 2.40625 0 L 0.5 0 Z M 2.359375 -0.796875 C 2.773438 -0.796875 3.109375 -0.910156 3.359375 -1.140625 C 3.609375 -1.378906 3.734375 -1.695312 3.734375 -2.09375 C 3.734375 -2.5 3.609375 -2.816406 3.359375 -3.046875 C 3.109375 -3.285156 2.773438 -3.40625 2.359375 -3.40625 L 1.46875 -3.40625 L 1.46875 -0.796875 Z M 2.359375 -0.796875 "/></g></g></g><g fill="#ed1c22" fill-opacity="1"><g transform="translate(24.898271, 6.143288)"><g><path d="M 0.5 -4.203125 L 1.46875 -4.203125 L 1.46875 0 L 0.5 0 Z M 0.5 -4.203125 "/></g></g></g><g fill="#ed1c22" fill-opacity="1"><g transform="translate(27.044187, 6.143288)"><g><path d="M 3.265625 -0.90625 L 1.3125 -0.90625 L 0.9375 0 L -0.046875 0 L 1.8125 -4.203125 L 2.78125 -4.203125 L 4.65625 0 L 3.640625 0 Z M 2.953125 -1.640625 L 2.296875 -3.25 L 1.625 -1.640625 Z M 2.953125 -1.640625 "/></g></g></g><g fill="#ed1c22" fill-opacity="1"><g transform="translate(31.815525, 6.143288)"><g><path d="M 4.34375 -4.203125 L 4.34375 0 L 3.546875 0 L 1.453125 -2.546875 L 1.453125 0 L 0.5 0 L 0.5 -4.203125 L 1.296875 -4.203125 L 3.390625 -1.65625 L 3.390625 -4.203125 Z M 4.34375 -4.203125 "/></g></g></g><g fill="#ed1c22" fill-opacity="1"><g transform="translate(36.838617, 6.143288)"><g/></g></g><g fill="#ed1c22" fill-opacity="1"><g transform="translate(38.714798, 6.143288)"><g><path d="M 2.53125 0.078125 C 2.09375 0.078125 1.695312 -0.015625 1.34375 -0.203125 C 1 -0.390625 0.726562 -0.648438 0.53125 -0.984375 C 0.332031 -1.316406 0.234375 -1.6875 0.234375 -2.09375 C 0.234375 -2.507812 0.332031 -2.878906 0.53125 -3.203125 C 0.726562 -3.535156 1 -3.796875 1.34375 -3.984375 C 1.695312 -4.171875 2.09375 -4.265625 2.53125 -4.265625 C 2.96875 -4.265625 3.359375 -4.171875 3.703125 -3.984375 C 4.054688 -3.796875 4.332031 -3.535156 4.53125 -3.203125 C 4.726562 -2.878906 4.828125 -2.507812 4.828125 -2.09375 C 4.828125 -1.6875 4.726562 -1.316406 4.53125 -0.984375 C 4.332031 -0.648438 4.054688 -0.390625 3.703125 -0.203125 C 3.359375 -0.015625 2.96875 0.078125 2.53125 0.078125 Z M 2.53125 -0.75 C 2.78125 -0.75 3.003906 -0.804688 3.203125 -0.921875 C 3.398438 -1.035156 3.554688 -1.191406 3.671875 -1.390625 C 3.785156 -1.597656 3.84375 -1.832031 3.84375 -2.09375 C 3.84375 -2.351562 3.785156 -2.585938 3.671875 -2.796875 C 3.554688 -3.003906 3.398438 -3.160156 3.203125 -3.265625 C 3.003906 -3.378906 2.78125 -3.4375 2.53125 -3.4375 C 2.28125 -3.4375 2.054688 -3.378906 1.859375 -3.265625 C 1.660156 -3.160156 1.503906 -3.003906 1.390625 -2.796875 C 1.273438 -2.585938 1.21875 -2.351562 1.21875 -2.09375 C 1.21875 -1.832031 1.273438 -1.597656 1.390625 -1.390625 C 1.503906 -1.191406 1.660156 -1.035156 1.859375 -0.921875 C 2.054688 -0.804688 2.28125 -0.75 2.53125 -0.75 Z M 2.53125 -0.75 "/></g></g></g><g fill="#ed1c22" fill-opacity="1"><g transform="translate(43.95368, 6.143288)"><g><path d="M 4.34375 -4.203125 L 4.34375 0 L 3.546875 0 L 1.453125 -2.546875 L 1.453125 0 L 0.5 0 L 0.5 -4.203125 L 1.296875 -4.203125 L 3.390625 -1.65625 L 3.390625 -4.203125 Z M 4.34375 -4.203125 "/></g></g></g><g fill="#ed1c22" fill-opacity="1"><g transform="translate(48.976772, 6.143288)"><g><path d="M 0.5 -4.203125 L 1.46875 -4.203125 L 1.46875 -0.796875 L 3.578125 -0.796875 L 3.578125 0 L 0.5 0 Z M 0.5 -4.203125 "/></g></g></g><g fill="#ed1c22" fill-opacity="1"><g transform="translate(52.777063, 6.143288)"><g><path d="M 0.5 -4.203125 L 1.46875 -4.203125 L 1.46875 0 L 0.5 0 Z M 0.5 -4.203125 "/></g></g></g><g fill="#ed1c22" fill-opacity="1"><g transform="translate(54.92298, 6.143288)"><g><path d="M 4.34375 -4.203125 L 4.34375 0 L 3.546875 0 L 1.453125 -2.546875 L 1.453125 0 L 0.5 0 L 0.5 -4.203125 L 1.296875 -4.203125 L 3.390625 -1.65625 L 3.390625 -4.203125 Z M 4.34375 -4.203125 "/></g></g></g><g fill="#ed1c22" fill-opacity="1"><g transform="translate(59.946072, 6.143288)"><g><path d="M 3.75 -0.78125 L 3.75 0 L 0.5 0 L 0.5 -4.203125 L 3.671875 -4.203125 L 3.671875 -3.421875 L 1.46875 -3.421875 L 1.46875 -2.515625 L 3.40625 -2.515625 L 3.40625 -1.75 L 1.46875 -1.75 L 1.46875 -0.78125 Z M 3.75 -0.78125 "/></g></g></g><g fill="#ed1c22" fill-opacity="1"><g transform="translate(64.147969, 6.143288)"><g/></g></g><g fill="#ed1c22" fill-opacity="1"><g transform="translate(66.024155, 6.143288)"><g><path d="M 4.34375 -4.203125 L 4.34375 0 L 3.375 0 L 3.375 -1.71875 L 1.46875 -1.71875 L 1.46875 0 L 0.5 0 L 0.5 -4.203125 L 1.46875 -4.203125 L 1.46875 -2.546875 L 3.375 -2.546875 L 3.375 -4.203125 Z M 4.34375 -4.203125 "/></g></g></g><g fill="#ed1c22" fill-opacity="1"><g transform="translate(71.047242, 6.143288)"><g><path d="M 0.5 -4.203125 L 1.46875 -4.203125 L 1.46875 0 L 0.5 0 Z M 0.5 -4.203125 "/></g></g></g><g fill="#ed1c22" fill-opacity="1"><g transform="translate(73.193158, 6.143288)"><g><path d="M 3.34375 -2.171875 L 4.21875 -2.171875 L 4.21875 -0.46875 C 3.988281 -0.289062 3.722656 -0.15625 3.421875 -0.0625 C 3.128906 0.03125 2.832031 0.078125 2.53125 0.078125 C 2.09375 0.078125 1.695312 -0.015625 1.34375 -0.203125 C 1 -0.390625 0.726562 -0.644531 0.53125 -0.96875 C 0.332031 -1.300781 0.234375 -1.675781 0.234375 -2.09375 C 0.234375 -2.507812 0.332031 -2.882812 0.53125 -3.21875 C 0.726562 -3.550781 1.003906 -3.804688 1.359375 -3.984375 C 1.710938 -4.171875 2.109375 -4.265625 2.546875 -4.265625 C 2.910156 -4.265625 3.242188 -4.203125 3.546875 -4.078125 C 3.847656 -3.960938 4.097656 -3.785156 4.296875 -3.546875 L 3.671875 -2.96875 C 3.378906 -3.28125 3.019531 -3.4375 2.59375 -3.4375 C 2.320312 -3.4375 2.082031 -3.378906 1.875 -3.265625 C 1.664062 -3.160156 1.503906 -3.003906 1.390625 -2.796875 C 1.273438 -2.597656 1.21875 -2.363281 1.21875 -2.09375 C 1.21875 -1.832031 1.273438 -1.597656 1.390625 -1.390625 C 1.503906 -1.191406 1.664062 -1.035156 1.875 -0.921875 C 2.082031 -0.804688 2.316406 -0.75 2.578125 -0.75 C 2.859375 -0.75 3.113281 -0.8125 3.34375 -0.9375 Z M 3.34375 -2.171875 "/></g></g></g><g fill="#ed1c22" fill-opacity="1"><g transform="translate(77.994472, 6.143288)"><g><path d="M 4.34375 -4.203125 L 4.34375 0 L 3.375 0 L 3.375 -1.71875 L 1.46875 -1.71875 L 1.46875 0 L 0.5 0 L 0.5 -4.203125 L 1.46875 -4.203125 L 1.46875 -2.546875 L 3.375 -2.546875 L 3.375 -4.203125 Z M 4.34375 -4.203125 "/></g></g></g><g fill="#ed1c22" fill-opacity="1"><g transform="translate(83.017564, 6.143288)"><g/></g></g><g fill="#ed1c22" fill-opacity="1"><g transform="translate(84.893745, 6.143288)"><g><path d="M 1.875 0.078125 C 1.539062 0.078125 1.21875 0.03125 0.90625 -0.0625 C 0.601562 -0.15625 0.359375 -0.269531 0.171875 -0.40625 L 0.5 -1.140625 C 0.675781 -1.015625 0.890625 -0.910156 1.140625 -0.828125 C 1.390625 -0.742188 1.640625 -0.703125 1.890625 -0.703125 C 2.160156 -0.703125 2.359375 -0.742188 2.484375 -0.828125 C 2.617188 -0.910156 2.6875 -1.019531 2.6875 -1.15625 C 2.6875 -1.257812 2.644531 -1.34375 2.5625 -1.40625 C 2.488281 -1.46875 2.390625 -1.519531 2.265625 -1.5625 C 2.148438 -1.601562 1.988281 -1.648438 1.78125 -1.703125 C 1.457031 -1.773438 1.191406 -1.847656 0.984375 -1.921875 C 0.785156 -2.003906 0.613281 -2.128906 0.46875 -2.296875 C 0.320312 -2.460938 0.25 -2.6875 0.25 -2.96875 C 0.25 -3.207031 0.3125 -3.425781 0.4375 -3.625 C 0.570312 -3.820312 0.773438 -3.976562 1.046875 -4.09375 C 1.316406 -4.207031 1.640625 -4.265625 2.015625 -4.265625 C 2.285156 -4.265625 2.546875 -4.234375 2.796875 -4.171875 C 3.054688 -4.109375 3.285156 -4.019531 3.484375 -3.90625 L 3.1875 -3.15625 C 2.789062 -3.375 2.398438 -3.484375 2.015625 -3.484375 C 1.742188 -3.484375 1.539062 -3.441406 1.40625 -3.359375 C 1.28125 -3.273438 1.21875 -3.160156 1.21875 -3.015625 C 1.21875 -2.867188 1.289062 -2.757812 1.4375 -2.6875 C 1.59375 -2.625 1.820312 -2.554688 2.125 -2.484375 C 2.445312 -2.410156 2.707031 -2.332031 2.90625 -2.25 C 3.113281 -2.175781 3.289062 -2.054688 3.4375 -1.890625 C 3.582031 -1.734375 3.65625 -1.515625 3.65625 -1.234375 C 3.65625 -0.992188 3.585938 -0.773438 3.453125 -0.578125 C 3.328125 -0.378906 3.128906 -0.21875 2.859375 -0.09375 C 2.585938 0.0195312 2.257812 0.078125 1.875 0.078125 Z M 1.875 0.078125 "/></g></g></g><g fill="#ed1c22" fill-opacity="1"><g transform="translate(88.897836, 6.143288)"><g><path d="M 2.515625 0.078125 C 2.078125 0.078125 1.6875 -0.015625 1.34375 -0.203125 C 1 -0.390625 0.726562 -0.644531 0.53125 -0.96875 C 0.332031 -1.300781 0.234375 -1.675781 0.234375 -2.09375 C 0.234375 -2.507812 0.332031 -2.882812 0.53125 -3.21875 C 0.726562 -3.550781 1 -3.804688 1.34375 -3.984375 C 1.6875 -4.171875 2.078125 -4.265625 2.515625 -4.265625 C 2.878906 -4.265625 3.207031 -4.203125 3.5 -4.078125 C 3.789062 -3.953125 4.035156 -3.769531 4.234375 -3.53125 L 3.625 -2.953125 C 3.332031 -3.273438 2.976562 -3.4375 2.5625 -3.4375 C 2.300781 -3.4375 2.066406 -3.378906 1.859375 -3.265625 C 1.660156 -3.160156 1.503906 -3.003906 1.390625 -2.796875 C 1.273438 -2.585938 1.21875 -2.351562 1.21875 -2.09375 C 1.21875 -1.832031 1.273438 -1.597656 1.390625 -1.390625 C 1.503906 -1.191406 1.660156 -1.035156 1.859375 -0.921875 C 2.066406 -0.804688 2.300781 -0.75 2.5625 -0.75 C 2.976562 -0.75 3.332031 -0.914062 3.625 -1.25 L 4.234375 -0.671875 C 4.035156 -0.429688 3.785156 -0.242188 3.484375 -0.109375 C 3.191406 0.015625 2.867188 0.078125 2.515625 0.078125 Z M 2.515625 0.078125 "/></g></g></g><g fill="#ed1c22" fill-opacity="1"><g transform="translate(93.471366, 6.143288)"><g><path d="M 4.34375 -4.203125 L 4.34375 0 L 3.375 0 L 3.375 -1.71875 L 1.46875 -1.71875 L 1.46875 0 L 0.5 0 L 0.5 -4.203125 L 1.46875 -4.203125 L 1.46875 -2.546875 L 3.375 -2.546875 L 3.375 -4.203125 Z M 4.34375 -4.203125 "/></g></g></g><g fill="#ed1c22" fill-opacity="1"><g transform="translate(98.494464, 6.143288)"><g><path d="M 2.53125 0.078125 C 2.09375 0.078125 1.695312 -0.015625 1.34375 -0.203125 C 1 -0.390625 0.726562 -0.648438 0.53125 -0.984375 C 0.332031 -1.316406 0.234375 -1.6875 0.234375 -2.09375 C 0.234375 -2.507812 0.332031 -2.878906 0.53125 -3.203125 C 0.726562 -3.535156 1 -3.796875 1.34375 -3.984375 C 1.695312 -4.171875 2.09375 -4.265625 2.53125 -4.265625 C 2.96875 -4.265625 3.359375 -4.171875 3.703125 -3.984375 C 4.054688 -3.796875 4.332031 -3.535156 4.53125 -3.203125 C 4.726562 -2.878906 4.828125 -2.507812 4.828125 -2.09375 C 4.828125 -1.6875 4.726562 -1.316406 4.53125 -0.984375 C 4.332031 -0.648438 4.054688 -0.390625 3.703125 -0.203125 C 3.359375 -0.015625 2.96875 0.078125 2.53125 0.078125 Z M 2.53125 -0.75 C 2.78125 -0.75 3.003906 -0.804688 3.203125 -0.921875 C 3.398438 -1.035156 3.554688 -1.191406 3.671875 -1.390625 C 3.785156 -1.597656 3.84375 -1.832031 3.84375 -2.09375 C 3.84375 -2.351562 3.785156 -2.585938 3.671875 -2.796875 C 3.554688 -3.003906 3.398438 -3.160156 3.203125 -3.265625 C 3.003906 -3.378906 2.78125 -3.4375 2.53125 -3.4375 C 2.28125 -3.4375 2.054688 -3.378906 1.859375 -3.265625 C 1.660156 -3.160156 1.503906 -3.003906 1.390625 -2.796875 C 1.273438 -2.585938 1.21875 -2.351562 1.21875 -2.09375 C 1.21875 -1.832031 1.273438 -1.597656 1.390625 -1.390625 C 1.503906 -1.191406 1.660156 -1.035156 1.859375 -0.921875 C 2.054688 -0.804688 2.28125 -0.75 2.53125 -0.75 Z M 2.53125 -0.75 "/></g></g></g><g fill="#ed1c22" fill-opacity="1"><g transform="translate(103.733346, 6.143288)"><g><path d="M 2.53125 0.078125 C 2.09375 0.078125 1.695312 -0.015625 1.34375 -0.203125 C 1 -0.390625 0.726562 -0.648438 0.53125 -0.984375 C 0.332031 -1.316406 0.234375 -1.6875 0.234375 -2.09375 C 0.234375 -2.507812 0.332031 -2.878906 0.53125 -3.203125 C 0.726562 -3.535156 1 -3.796875 1.34375 -3.984375 C 1.695312 -4.171875 2.09375 -4.265625 2.53125 -4.265625 C 2.96875 -4.265625 3.359375 -4.171875 3.703125 -3.984375 C 4.054688 -3.796875 4.332031 -3.535156 4.53125 -3.203125 C 4.726562 -2.878906 4.828125 -2.507812 4.828125 -2.09375 C 4.828125 -1.6875 4.726562 -1.316406 4.53125 -0.984375 C 4.332031 -0.648438 4.054688 -0.390625 3.703125 -0.203125 C 3.359375 -0.015625 2.96875 0.078125 2.53125 0.078125 Z M 2.53125 -0.75 C 2.78125 -0.75 3.003906 -0.804688 3.203125 -0.921875 C 3.398438 -1.035156 3.554688 -1.191406 3.671875 -1.390625 C 3.785156 -1.597656 3.84375 -1.832031 3.84375 -2.09375 C 3.84375 -2.351562 3.785156 -2.585938 3.671875 -2.796875 C 3.554688 -3.003906 3.398438 -3.160156 3.203125 -3.265625 C 3.003906 -3.378906 2.78125 -3.4375 2.53125 -3.4375 C 2.28125 -3.4375 2.054688 -3.378906 1.859375 -3.265625 C 1.660156 -3.160156 1.503906 -3.003906 1.390625 -2.796875 C 1.273438 -2.585938 1.21875 -2.351562 1.21875 -2.09375 C 1.21875 -1.832031 1.273438 -1.597656 1.390625 -1.390625 C 1.503906 -1.191406 1.660156 -1.035156 1.859375 -0.921875 C 2.054688 -0.804688 2.28125 -0.75 2.53125 -0.75 Z M 2.53125 -0.75 "/></g></g></g><g clip-path="url(#84fc67a918)"><g fill="#ed1c22" fill-opacity="1"><g transform="translate(108.972227, 6.143288)"><g><path d="M 0.5 -4.203125 L 1.46875 -4.203125 L 1.46875 -0.796875 L 3.578125 -0.796875 L 3.578125 0 L 0.5 0 Z M 0.5 -4.203125 "/></g></g></g></g></g></g><g clip-path="url(#409849d990)"><path fill="#ed1c23" d="M 28.644531 51.207031 L 28.644531 58.296875 L 25.144531 58.296875 L 25.144531 51.207031 L 28.644531 51.207031 " fill-opacity="1" fill-rule="nonzero"/></g><g clip-path="url(#9d1b49eec6)"><path fill="#ed1c23" d="M 47.472656 39.527344 L 37.179688 47.945312 L 38.636719 54.058594 L 34.207031 52.453125 L 33.515625 49.566406 L 40.835938 43.578125 L 39.777344 42.980469 L 41.476562 38.632812 L 36.953125 39.011719 L 36.445312 37.640625 L 30.792969 44.6875 L 31.789062 33.023438 L 30.136719 34.367188 L 26.890625 28.054688 L 23.652344 34.371094 L 22 33.019531 L 22.992188 44.6875 L 17.339844 37.632812 L 16.828125 39.011719 L 12.3125 38.632812 L 14.011719 42.980469 L 12.945312 43.582031 L 20.265625 49.566406 L 19.578125 52.457031 L 15.148438 54.058594 L 16.601562 47.945312 L 6.3125 39.527344 L 8.554688 38.261719 L 5.949219 31.597656 L 13.097656 32.199219 L 14.363281 28.773438 L 19.722656 35.457031 L 18.625 22.535156 L 22.253906 25.496094 L 26.890625 16.457031 L 31.535156 25.496094 L 35.164062 22.535156 L 34.058594 35.457031 L 39.425781 28.773438 L 40.6875 32.199219 L 47.839844 31.597656 L 45.230469 38.261719 L 47.472656 39.527344 " fill-opacity="1" fill-rule="nonzero"/></g></svg>