<svg xmlns="http://www.w3.org/2000/svg" xmlns:xlink="http://www.w3.org/1999/xlink" width="250" zoomAndPan="magnify" viewBox="0 0 187.5 74.999997" height="100" preserveAspectRatio="xMidYMid meet" version="1.0"><defs><g/><clipPath id="4e54be0234"><path d="M 164 8 L 176.914062 8 L 176.914062 23 L 164 23 Z M 164 8 " clip-rule="nonzero"/></clipPath><clipPath id="3c2b57c848"><rect x="0" width="177" y="0" height="24"/></clipPath></defs><g transform="matrix(1, 0, 0, 1, 5, 24)"><g clip-path="url(#3c2b57c848)"><g fill="#2c3892" fill-opacity="1"><g transform="translate(0.592638, 19.031022)"><g><path d="M 8.015625 0.234375 C 6.648438 0.234375 5.410156 -0.0625 4.296875 -0.65625 C 3.191406 -1.25 2.320312 -2.070312 1.6875 -3.125 C 1.0625 -4.1875 0.75 -5.382812 0.75 -6.71875 C 0.75 -8.050781 1.0625 -9.242188 1.6875 -10.296875 C 2.320312 -11.347656 3.191406 -12.171875 4.296875 -12.765625 C 5.410156 -13.359375 6.660156 -13.65625 8.046875 -13.65625 C 9.203125 -13.65625 10.25 -13.453125 11.1875 -13.046875 C 12.132812 -12.640625 12.925781 -12.050781 13.5625 -11.28125 L 11.5625 -9.4375 C 10.65625 -10.488281 9.53125 -11.015625 8.1875 -11.015625 C 7.363281 -11.015625 6.625 -10.832031 5.96875 -10.46875 C 5.3125 -10.101562 4.800781 -9.59375 4.4375 -8.9375 C 4.070312 -8.289062 3.890625 -7.550781 3.890625 -6.71875 C 3.890625 -5.882812 4.070312 -5.140625 4.4375 -4.484375 C 4.800781 -3.835938 5.3125 -3.332031 5.96875 -2.96875 C 6.625 -2.601562 7.363281 -2.421875 8.1875 -2.421875 C 9.53125 -2.421875 10.65625 -2.953125 11.5625 -4.015625 L 13.5625 -2.171875 C 12.925781 -1.390625 12.132812 -0.789062 11.1875 -0.375 C 10.238281 0.03125 9.179688 0.234375 8.015625 0.234375 Z M 8.015625 0.234375 "/></g></g></g><g fill="#2c3892" fill-opacity="1"><g transform="translate(14.022133, 19.031022)"><g><path d="M 5.546875 -10.46875 C 7.140625 -10.46875 8.363281 -10.085938 9.21875 -9.328125 C 10.082031 -8.566406 10.515625 -7.421875 10.515625 -5.890625 L 10.515625 0 L 7.71875 0 L 7.71875 -1.28125 C 7.15625 -0.320312 6.101562 0.15625 4.5625 0.15625 C 3.769531 0.15625 3.082031 0.0195312 2.5 -0.25 C 1.914062 -0.519531 1.46875 -0.890625 1.15625 -1.359375 C 0.851562 -1.835938 0.703125 -2.375 0.703125 -2.96875 C 0.703125 -3.925781 1.0625 -4.679688 1.78125 -5.234375 C 2.507812 -5.785156 3.628906 -6.0625 5.140625 -6.0625 L 7.515625 -6.0625 C 7.515625 -6.71875 7.316406 -7.21875 6.921875 -7.5625 C 6.523438 -7.914062 5.929688 -8.09375 5.140625 -8.09375 C 4.585938 -8.09375 4.046875 -8.003906 3.515625 -7.828125 C 2.984375 -7.660156 2.535156 -7.429688 2.171875 -7.140625 L 1.09375 -9.234375 C 1.65625 -9.628906 2.328125 -9.929688 3.109375 -10.140625 C 3.898438 -10.359375 4.710938 -10.46875 5.546875 -10.46875 Z M 5.3125 -1.859375 C 5.820312 -1.859375 6.273438 -1.976562 6.671875 -2.21875 C 7.066406 -2.457031 7.347656 -2.804688 7.515625 -3.265625 L 7.515625 -4.3125 L 5.46875 -4.3125 C 4.238281 -4.3125 3.625 -3.910156 3.625 -3.109375 C 3.625 -2.722656 3.773438 -2.414062 4.078125 -2.1875 C 4.378906 -1.96875 4.789062 -1.859375 5.3125 -1.859375 Z M 5.3125 -1.859375 "/></g></g></g><g fill="#2c3892" fill-opacity="1"><g transform="translate(25.226165, 19.031022)"><g><path d="M 7.65625 -10.46875 C 8.9375 -10.46875 9.96875 -10.082031 10.75 -9.3125 C 11.539062 -8.550781 11.9375 -7.414062 11.9375 -5.90625 L 11.9375 0 L 8.9375 0 L 8.9375 -5.453125 C 8.9375 -6.265625 8.753906 -6.875 8.390625 -7.28125 C 8.035156 -7.6875 7.519531 -7.890625 6.84375 -7.890625 C 6.09375 -7.890625 5.492188 -7.65625 5.046875 -7.1875 C 4.597656 -6.71875 4.375 -6.023438 4.375 -5.109375 L 4.375 0 L 1.375 0 L 1.375 -10.328125 L 4.234375 -10.328125 L 4.234375 -9.109375 C 4.628906 -9.546875 5.117188 -9.878906 5.703125 -10.109375 C 6.296875 -10.347656 6.945312 -10.46875 7.65625 -10.46875 Z M 7.65625 -10.46875 "/></g></g></g><g fill="#2c3892" fill-opacity="1"><g transform="translate(37.849891, 19.031022)"><g><path d="M 5.546875 -10.46875 C 7.140625 -10.46875 8.363281 -10.085938 9.21875 -9.328125 C 10.082031 -8.566406 10.515625 -7.421875 10.515625 -5.890625 L 10.515625 0 L 7.71875 0 L 7.71875 -1.28125 C 7.15625 -0.320312 6.101562 0.15625 4.5625 0.15625 C 3.769531 0.15625 3.082031 0.0195312 2.5 -0.25 C 1.914062 -0.519531 1.46875 -0.890625 1.15625 -1.359375 C 0.851562 -1.835938 0.703125 -2.375 0.703125 -2.96875 C 0.703125 -3.925781 1.0625 -4.679688 1.78125 -5.234375 C 2.507812 -5.785156 3.628906 -6.0625 5.140625 -6.0625 L 7.515625 -6.0625 C 7.515625 -6.71875 7.316406 -7.21875 6.921875 -7.5625 C 6.523438 -7.914062 5.929688 -8.09375 5.140625 -8.09375 C 4.585938 -8.09375 4.046875 -8.003906 3.515625 -7.828125 C 2.984375 -7.660156 2.535156 -7.429688 2.171875 -7.140625 L 1.09375 -9.234375 C 1.65625 -9.628906 2.328125 -9.929688 3.109375 -10.140625 C 3.898438 -10.359375 4.710938 -10.46875 5.546875 -10.46875 Z M 5.3125 -1.859375 C 5.820312 -1.859375 6.273438 -1.976562 6.671875 -2.21875 C 7.066406 -2.457031 7.347656 -2.804688 7.515625 -3.265625 L 7.515625 -4.3125 L 5.46875 -4.3125 C 4.238281 -4.3125 3.625 -3.910156 3.625 -3.109375 C 3.625 -2.722656 3.773438 -2.414062 4.078125 -2.1875 C 4.378906 -1.96875 4.789062 -1.859375 5.3125 -1.859375 Z M 5.3125 -1.859375 "/></g></g></g><g fill="#2c3892" fill-opacity="1"><g transform="translate(49.053922, 19.031022)"><g><path d="M 11.890625 -14.234375 L 11.890625 0 L 9.03125 0 L 9.03125 -1.1875 C 8.289062 -0.289062 7.21875 0.15625 5.8125 0.15625 C 4.84375 0.15625 3.960938 -0.0625 3.171875 -0.5 C 2.390625 -0.9375 1.773438 -1.554688 1.328125 -2.359375 C 0.878906 -3.160156 0.65625 -4.09375 0.65625 -5.15625 C 0.65625 -6.21875 0.878906 -7.148438 1.328125 -7.953125 C 1.773438 -8.765625 2.390625 -9.382812 3.171875 -9.8125 C 3.960938 -10.25 4.84375 -10.46875 5.8125 -10.46875 C 7.132812 -10.46875 8.164062 -10.054688 8.90625 -9.234375 L 8.90625 -14.234375 Z M 6.328125 -2.296875 C 7.085938 -2.296875 7.710938 -2.554688 8.203125 -3.078125 C 8.703125 -3.597656 8.953125 -4.289062 8.953125 -5.15625 C 8.953125 -6.03125 8.703125 -6.722656 8.203125 -7.234375 C 7.710938 -7.753906 7.085938 -8.015625 6.328125 -8.015625 C 5.566406 -8.015625 4.9375 -7.753906 4.4375 -7.234375 C 3.9375 -6.722656 3.6875 -6.03125 3.6875 -5.15625 C 3.6875 -4.289062 3.9375 -3.597656 4.4375 -3.078125 C 4.9375 -2.554688 5.566406 -2.296875 6.328125 -2.296875 Z M 6.328125 -2.296875 "/></g></g></g><g fill="#2c3892" fill-opacity="1"><g transform="translate(61.696832, 19.031022)"><g><path d="M 5.546875 -10.46875 C 7.140625 -10.46875 8.363281 -10.085938 9.21875 -9.328125 C 10.082031 -8.566406 10.515625 -7.421875 10.515625 -5.890625 L 10.515625 0 L 7.71875 0 L 7.71875 -1.28125 C 7.15625 -0.320312 6.101562 0.15625 4.5625 0.15625 C 3.769531 0.15625 3.082031 0.0195312 2.5 -0.25 C 1.914062 -0.519531 1.46875 -0.890625 1.15625 -1.359375 C 0.851562 -1.835938 0.703125 -2.375 0.703125 -2.96875 C 0.703125 -3.925781 1.0625 -4.679688 1.78125 -5.234375 C 2.507812 -5.785156 3.628906 -6.0625 5.140625 -6.0625 L 7.515625 -6.0625 C 7.515625 -6.71875 7.316406 -7.21875 6.921875 -7.5625 C 6.523438 -7.914062 5.929688 -8.09375 5.140625 -8.09375 C 4.585938 -8.09375 4.046875 -8.003906 3.515625 -7.828125 C 2.984375 -7.660156 2.535156 -7.429688 2.171875 -7.140625 L 1.09375 -9.234375 C 1.65625 -9.628906 2.328125 -9.929688 3.109375 -10.140625 C 3.898438 -10.359375 4.710938 -10.46875 5.546875 -10.46875 Z M 5.3125 -1.859375 C 5.820312 -1.859375 6.273438 -1.976562 6.671875 -2.21875 C 7.066406 -2.457031 7.347656 -2.804688 7.515625 -3.265625 L 7.515625 -4.3125 L 5.46875 -4.3125 C 4.238281 -4.3125 3.625 -3.910156 3.625 -3.109375 C 3.625 -2.722656 3.773438 -2.414062 4.078125 -2.1875 C 4.378906 -1.96875 4.789062 -1.859375 5.3125 -1.859375 Z M 5.3125 -1.859375 "/></g></g></g><g fill="#ed1c23" fill-opacity="1"><g transform="translate(72.901141, 19.031022)"><g><path d="M 10.6875 -4.625 L 2.25 -4.625 C 2.320312 -3.570312 2.722656 -2.722656 3.453125 -2.078125 C 4.179688 -1.429688 5.101562 -1.109375 6.21875 -1.109375 C 6.84375 -1.109375 7.414062 -1.21875 7.9375 -1.4375 C 8.46875 -1.664062 8.925781 -2 9.3125 -2.4375 L 10.078125 -1.546875 C 9.628906 -1.015625 9.066406 -0.609375 8.390625 -0.328125 C 7.722656 -0.046875 6.984375 0.09375 6.171875 0.09375 C 5.140625 0.09375 4.222656 -0.125 3.421875 -0.5625 C 2.617188 -1.007812 1.992188 -1.617188 1.546875 -2.390625 C 1.097656 -3.171875 0.875 -4.054688 0.875 -5.046875 C 0.875 -6.035156 1.085938 -6.914062 1.515625 -7.6875 C 1.953125 -8.46875 2.539062 -9.078125 3.28125 -9.515625 C 4.03125 -9.953125 4.875 -10.171875 5.8125 -10.171875 C 6.75 -10.171875 7.585938 -9.953125 8.328125 -9.515625 C 9.066406 -9.078125 9.644531 -8.472656 10.0625 -7.703125 C 10.488281 -6.929688 10.703125 -6.046875 10.703125 -5.046875 Z M 5.8125 -9 C 4.84375 -9 4.023438 -8.6875 3.359375 -8.0625 C 2.703125 -7.445312 2.332031 -6.640625 2.25 -5.640625 L 9.40625 -5.640625 C 9.3125 -6.640625 8.9375 -7.445312 8.28125 -8.0625 C 7.625 -8.6875 6.800781 -9 5.8125 -9 Z M 5.8125 -9 "/></g></g></g><g fill="#2c3892" fill-opacity="1"><g transform="translate(83.856204, 19.031022)"><g><path d="M 10.34375 -2.609375 L 4.65625 -2.609375 L 3.609375 0 L -0.265625 0 L 5.65625 -13.4375 L 9.40625 -13.4375 L 15.34375 0 L 11.390625 0 Z M 9.234375 -5.40625 L 7.5 -9.703125 L 5.78125 -5.40625 Z M 9.234375 -5.40625 "/></g></g></g><g fill="#2c3892" fill-opacity="1"><g transform="translate(98.302508, 19.031022)"><g><path d="M 6.484375 0.171875 C 5.335938 0.171875 4.304688 -0.0546875 3.390625 -0.515625 C 2.484375 -0.972656 1.773438 -1.613281 1.265625 -2.4375 C 0.765625 -3.257812 0.515625 -4.1875 0.515625 -5.21875 C 0.515625 -6.25 0.765625 -7.171875 1.265625 -7.984375 C 1.773438 -8.796875 2.484375 -9.429688 3.390625 -9.890625 C 4.304688 -10.347656 5.335938 -10.578125 6.484375 -10.578125 C 7.660156 -10.578125 8.675781 -10.320312 9.53125 -9.8125 C 10.394531 -9.3125 11.003906 -8.613281 11.359375 -7.71875 L 8.53125 -6.28125 C 8.0625 -7.207031 7.375 -7.671875 6.46875 -7.671875 C 5.8125 -7.671875 5.269531 -7.453125 4.84375 -7.015625 C 4.414062 -6.585938 4.203125 -5.988281 4.203125 -5.21875 C 4.203125 -4.4375 4.414062 -3.820312 4.84375 -3.375 C 5.269531 -2.9375 5.8125 -2.71875 6.46875 -2.71875 C 7.375 -2.71875 8.0625 -3.1875 8.53125 -4.125 L 11.359375 -2.6875 C 11.003906 -1.789062 10.394531 -1.085938 9.53125 -0.578125 C 8.675781 -0.078125 7.660156 0.171875 6.484375 0.171875 Z M 6.484375 0.171875 "/></g></g></g><g fill="#2c3892" fill-opacity="1"><g transform="translate(109.237948, 19.031022)"><g><path d="M 5.609375 -10.578125 C 7.328125 -10.578125 8.640625 -10.179688 9.546875 -9.390625 C 10.460938 -8.609375 10.921875 -7.40625 10.921875 -5.78125 L 10.921875 0 L 7.515625 0 L 7.515625 -1.34375 C 6.992188 -0.332031 5.972656 0.171875 4.453125 0.171875 C 3.648438 0.171875 2.953125 0.03125 2.359375 -0.25 C 1.773438 -0.53125 1.332031 -0.910156 1.03125 -1.390625 C 0.726562 -1.867188 0.578125 -2.414062 0.578125 -3.03125 C 0.578125 -4.019531 0.953125 -4.785156 1.703125 -5.328125 C 2.460938 -5.867188 3.628906 -6.140625 5.203125 -6.140625 L 7.265625 -6.140625 C 7.203125 -7.242188 6.46875 -7.796875 5.0625 -7.796875 C 4.5625 -7.796875 4.054688 -7.710938 3.546875 -7.546875 C 3.035156 -7.390625 2.601562 -7.171875 2.25 -6.890625 L 1.015625 -9.359375 C 1.585938 -9.742188 2.285156 -10.039062 3.109375 -10.25 C 3.941406 -10.46875 4.773438 -10.578125 5.609375 -10.578125 Z M 5.46875 -2.125 C 5.894531 -2.125 6.265625 -2.226562 6.578125 -2.4375 C 6.898438 -2.644531 7.128906 -2.945312 7.265625 -3.34375 L 7.265625 -4.234375 L 5.703125 -4.234375 C 4.640625 -4.234375 4.109375 -3.882812 4.109375 -3.1875 C 4.109375 -2.863281 4.226562 -2.601562 4.46875 -2.40625 C 4.707031 -2.21875 5.039062 -2.125 5.46875 -2.125 Z M 5.46875 -2.125 "/></g></g></g><g fill="#2c3892" fill-opacity="1"><g transform="translate(120.653018, 19.031022)"><g><path d="M 12.21875 -14.234375 L 12.21875 0 L 8.75 0 L 8.75 -1.03125 C 8.070312 -0.226562 7.054688 0.171875 5.703125 0.171875 C 4.753906 0.171875 3.890625 -0.046875 3.109375 -0.484375 C 2.328125 -0.929688 1.707031 -1.5625 1.25 -2.375 C 0.800781 -3.195312 0.578125 -4.144531 0.578125 -5.21875 C 0.578125 -6.289062 0.800781 -7.234375 1.25 -8.046875 C 1.707031 -8.859375 2.328125 -9.484375 3.109375 -9.921875 C 3.890625 -10.359375 4.753906 -10.578125 5.703125 -10.578125 C 6.941406 -10.578125 7.898438 -10.21875 8.578125 -9.5 L 8.578125 -14.234375 Z M 6.46875 -2.71875 C 7.09375 -2.71875 7.609375 -2.9375 8.015625 -3.375 C 8.429688 -3.820312 8.640625 -4.4375 8.640625 -5.21875 C 8.640625 -5.988281 8.4375 -6.585938 8.03125 -7.015625 C 7.625 -7.453125 7.101562 -7.671875 6.46875 -7.671875 C 5.820312 -7.671875 5.296875 -7.453125 4.890625 -7.015625 C 4.484375 -6.585938 4.28125 -5.988281 4.28125 -5.21875 C 4.28125 -4.4375 4.484375 -3.820312 4.890625 -3.375 C 5.296875 -2.9375 5.820312 -2.71875 6.46875 -2.71875 Z M 6.46875 -2.71875 "/></g></g></g><g fill="#2c3892" fill-opacity="1"><g transform="translate(133.411036, 19.031022)"><g><path d="M 11.796875 -5.1875 C 11.796875 -5.15625 11.78125 -4.851562 11.75 -4.28125 L 4.1875 -4.28125 C 4.332031 -3.738281 4.625 -3.320312 5.0625 -3.03125 C 5.507812 -2.75 6.066406 -2.609375 6.734375 -2.609375 C 7.234375 -2.609375 7.664062 -2.675781 8.03125 -2.8125 C 8.394531 -2.957031 8.765625 -3.191406 9.140625 -3.515625 L 11.046875 -1.515625 C 10.035156 -0.390625 8.5625 0.171875 6.625 0.171875 C 5.40625 0.171875 4.332031 -0.0546875 3.40625 -0.515625 C 2.488281 -0.972656 1.773438 -1.613281 1.265625 -2.4375 C 0.765625 -3.257812 0.515625 -4.1875 0.515625 -5.21875 C 0.515625 -6.238281 0.757812 -7.15625 1.25 -7.96875 C 1.75 -8.78125 2.429688 -9.414062 3.296875 -9.875 C 4.171875 -10.34375 5.148438 -10.578125 6.234375 -10.578125 C 7.273438 -10.578125 8.21875 -10.359375 9.0625 -9.921875 C 9.90625 -9.492188 10.570312 -8.875 11.0625 -8.0625 C 11.550781 -7.25 11.796875 -6.289062 11.796875 -5.1875 Z M 6.25 -7.984375 C 5.6875 -7.984375 5.21875 -7.820312 4.84375 -7.5 C 4.46875 -7.175781 4.226562 -6.742188 4.125 -6.203125 L 8.390625 -6.203125 C 8.285156 -6.742188 8.039062 -7.175781 7.65625 -7.5 C 7.28125 -7.820312 6.8125 -7.984375 6.25 -7.984375 Z M 6.25 -7.984375 "/></g></g></g><g fill="#2c3892" fill-opacity="1"><g transform="translate(145.094696, 19.031022)"><g><path d="M 14.71875 -10.578125 C 16 -10.578125 17.019531 -10.191406 17.78125 -9.421875 C 18.539062 -8.648438 18.921875 -7.492188 18.921875 -5.953125 L 18.921875 0 L 15.265625 0 L 15.265625 -5.359375 C 15.265625 -6.085938 15.128906 -6.625 14.859375 -6.96875 C 14.585938 -7.3125 14.203125 -7.484375 13.703125 -7.484375 C 13.148438 -7.484375 12.707031 -7.289062 12.375 -6.90625 C 12.039062 -6.519531 11.875 -5.9375 11.875 -5.15625 L 11.875 0 L 8.234375 0 L 8.234375 -5.359375 C 8.234375 -6.773438 7.707031 -7.484375 6.65625 -7.484375 C 6.09375 -7.484375 5.644531 -7.289062 5.3125 -6.90625 C 4.976562 -6.519531 4.8125 -5.9375 4.8125 -5.15625 L 4.8125 0 L 1.171875 0 L 1.171875 -10.40625 L 4.640625 -10.40625 L 4.640625 -9.3125 C 5.023438 -9.726562 5.484375 -10.039062 6.015625 -10.25 C 6.546875 -10.46875 7.125 -10.578125 7.75 -10.578125 C 8.476562 -10.578125 9.128906 -10.441406 9.703125 -10.171875 C 10.285156 -9.898438 10.753906 -9.488281 11.109375 -8.9375 C 11.515625 -9.46875 12.03125 -9.875 12.65625 -10.15625 C 13.289062 -10.4375 13.976562 -10.578125 14.71875 -10.578125 Z M 14.71875 -10.578125 "/></g></g></g><g clip-path="url(#4e54be0234)"><g fill="#2c3892" fill-opacity="1"><g transform="translate(164.509919, 19.031022)"><g><path d="M 12.125 -10.40625 L 7.640625 0.421875 C 7.109375 1.703125 6.460938 2.597656 5.703125 3.109375 C 4.953125 3.628906 4.035156 3.890625 2.953125 3.890625 C 2.398438 3.890625 1.84375 3.800781 1.28125 3.625 C 0.726562 3.457031 0.28125 3.234375 -0.0625 2.953125 L 1.203125 0.40625 C 1.410156 0.59375 1.65625 0.738281 1.9375 0.84375 C 2.226562 0.957031 2.523438 1.015625 2.828125 1.015625 C 3.171875 1.015625 3.453125 0.941406 3.671875 0.796875 C 3.898438 0.660156 4.085938 0.441406 4.234375 0.140625 L -0.21875 -10.40625 L 3.53125 -10.40625 L 6.078125 -4.046875 L 8.65625 -10.40625 Z M 12.125 -10.40625 "/></g></g></g></g></g></g></svg>