<svg xmlns="http://www.w3.org/2000/svg" xmlns:xlink="http://www.w3.org/1999/xlink" width="250" zoomAndPan="magnify" viewBox="0 0 187.5 74.999997" height="100" preserveAspectRatio="xMidYMid meet" version="1.0"><defs><g/><clipPath id="20d89b3414"><path d="M 0.0273438 3 L 11 3 L 11 15 L 0.0273438 15 Z M 0.0273438 3 " clip-rule="nonzero"/></clipPath><clipPath id="b75fdb31f9"><path d="M 123 6 L 132.632812 6 L 132.632812 17.972656 L 123 17.972656 Z M 123 6 " clip-rule="nonzero"/></clipPath><clipPath id="71046972b9"><rect x="0" width="133" y="0" height="18"/></clipPath><clipPath id="965c6eaf74"><path d="M 21 51 L 26 51 L 26 59.335938 L 21 59.335938 Z M 21 51 " clip-rule="nonzero"/></clipPath><clipPath id="aabc1f6587"><path d="M 2.148438 15.976562 L 44.785156 15.976562 L 44.785156 55 L 2.148438 55 Z M 2.148438 15.976562 " clip-rule="nonzero"/></clipPath></defs><g transform="matrix(1, 0, 0, 1, 50, 30)"><g clip-path="url(#71046972b9)"><g clip-path="url(#20d89b3414)"><g fill="#2c3892" fill-opacity="1"><g transform="translate(0.0630194, 14.202531)"><g><path d="M 6.03125 0.171875 C 5 0.171875 4.066406 -0.0507812 3.234375 -0.5 C 2.398438 -0.945312 1.742188 -1.566406 1.265625 -2.359375 C 0.796875 -3.148438 0.5625 -4.046875 0.5625 -5.046875 C 0.5625 -6.046875 0.796875 -6.941406 1.265625 -7.734375 C 1.742188 -8.523438 2.398438 -9.144531 3.234375 -9.59375 C 4.066406 -10.039062 5.003906 -10.265625 6.046875 -10.265625 C 6.921875 -10.265625 7.707031 -10.109375 8.40625 -9.796875 C 9.113281 -9.492188 9.710938 -9.054688 10.203125 -8.484375 L 8.703125 -7.09375 C 8.015625 -7.882812 7.164062 -8.28125 6.15625 -8.28125 C 5.53125 -8.28125 4.972656 -8.140625 4.484375 -7.859375 C 3.992188 -7.585938 3.609375 -7.207031 3.328125 -6.71875 C 3.054688 -6.226562 2.921875 -5.671875 2.921875 -5.046875 C 2.921875 -4.421875 3.054688 -3.863281 3.328125 -3.375 C 3.609375 -2.882812 3.992188 -2.5 4.484375 -2.21875 C 4.972656 -1.945312 5.53125 -1.8125 6.15625 -1.8125 C 7.164062 -1.8125 8.015625 -2.210938 8.703125 -3.015625 L 10.203125 -1.625 C 9.710938 -1.039062 9.113281 -0.59375 8.40625 -0.28125 C 7.695312 0.0195312 6.90625 0.171875 6.03125 0.171875 Z M 6.03125 0.171875 "/></g></g></g></g><g fill="#2c3892" fill-opacity="1"><g transform="translate(10.153965, 14.202531)"><g><path d="M 4.171875 -7.875 C 5.367188 -7.875 6.289062 -7.585938 6.9375 -7.015625 C 7.582031 -6.441406 7.90625 -5.578125 7.90625 -4.421875 L 7.90625 0 L 5.796875 0 L 5.796875 -0.96875 C 5.367188 -0.25 4.582031 0.109375 3.4375 0.109375 C 2.832031 0.109375 2.3125 0.0078125 1.875 -0.1875 C 1.4375 -0.382812 1.101562 -0.660156 0.875 -1.015625 C 0.644531 -1.378906 0.53125 -1.785156 0.53125 -2.234375 C 0.53125 -2.953125 0.800781 -3.519531 1.34375 -3.9375 C 1.882812 -4.351562 2.722656 -4.5625 3.859375 -4.5625 L 5.65625 -4.5625 C 5.65625 -5.050781 5.503906 -5.425781 5.203125 -5.6875 C 4.910156 -5.957031 4.460938 -6.09375 3.859375 -6.09375 C 3.453125 -6.09375 3.046875 -6.023438 2.640625 -5.890625 C 2.242188 -5.765625 1.90625 -5.585938 1.625 -5.359375 L 0.828125 -6.9375 C 1.242188 -7.238281 1.75 -7.46875 2.34375 -7.625 C 2.9375 -7.789062 3.546875 -7.875 4.171875 -7.875 Z M 4 -1.40625 C 4.382812 -1.40625 4.722656 -1.492188 5.015625 -1.671875 C 5.316406 -1.847656 5.53125 -2.109375 5.65625 -2.453125 L 5.65625 -3.25 L 4.109375 -3.25 C 3.179688 -3.25 2.71875 -2.945312 2.71875 -2.34375 C 2.71875 -2.050781 2.832031 -1.820312 3.0625 -1.65625 C 3.289062 -1.488281 3.601562 -1.40625 4 -1.40625 Z M 4 -1.40625 "/></g></g></g><g fill="#2c3892" fill-opacity="1"><g transform="translate(18.572694, 14.202531)"><g><path d="M 5.75 -7.875 C 6.71875 -7.875 7.492188 -7.582031 8.078125 -7 C 8.671875 -6.425781 8.96875 -5.570312 8.96875 -4.4375 L 8.96875 0 L 6.71875 0 L 6.71875 -4.09375 C 6.71875 -4.707031 6.582031 -5.164062 6.3125 -5.46875 C 6.039062 -5.769531 5.65625 -5.921875 5.15625 -5.921875 C 4.582031 -5.921875 4.125 -5.742188 3.78125 -5.390625 C 3.445312 -5.046875 3.28125 -4.53125 3.28125 -3.84375 L 3.28125 0 L 1.03125 0 L 1.03125 -7.765625 L 3.1875 -7.765625 L 3.1875 -6.84375 C 3.488281 -7.175781 3.859375 -7.429688 4.296875 -7.609375 C 4.742188 -7.785156 5.226562 -7.875 5.75 -7.875 Z M 5.75 -7.875 "/></g></g></g><g fill="#2c3892" fill-opacity="1"><g transform="translate(28.058183, 14.202531)"><g><path d="M 4.171875 -7.875 C 5.367188 -7.875 6.289062 -7.585938 6.9375 -7.015625 C 7.582031 -6.441406 7.90625 -5.578125 7.90625 -4.421875 L 7.90625 0 L 5.796875 0 L 5.796875 -0.96875 C 5.367188 -0.25 4.582031 0.109375 3.4375 0.109375 C 2.832031 0.109375 2.3125 0.0078125 1.875 -0.1875 C 1.4375 -0.382812 1.101562 -0.660156 0.875 -1.015625 C 0.644531 -1.378906 0.53125 -1.785156 0.53125 -2.234375 C 0.53125 -2.953125 0.800781 -3.519531 1.34375 -3.9375 C 1.882812 -4.351562 2.722656 -4.5625 3.859375 -4.5625 L 5.65625 -4.5625 C 5.65625 -5.050781 5.503906 -5.425781 5.203125 -5.6875 C 4.910156 -5.957031 4.460938 -6.09375 3.859375 -6.09375 C 3.453125 -6.09375 3.046875 -6.023438 2.640625 -5.890625 C 2.242188 -5.765625 1.90625 -5.585938 1.625 -5.359375 L 0.828125 -6.9375 C 1.242188 -7.238281 1.75 -7.46875 2.34375 -7.625 C 2.9375 -7.789062 3.546875 -7.875 4.171875 -7.875 Z M 4 -1.40625 C 4.382812 -1.40625 4.722656 -1.492188 5.015625 -1.671875 C 5.316406 -1.847656 5.53125 -2.109375 5.65625 -2.453125 L 5.65625 -3.25 L 4.109375 -3.25 C 3.179688 -3.25 2.71875 -2.945312 2.71875 -2.34375 C 2.71875 -2.050781 2.832031 -1.820312 3.0625 -1.65625 C 3.289062 -1.488281 3.601562 -1.40625 4 -1.40625 Z M 4 -1.40625 "/></g></g></g><g fill="#2c3892" fill-opacity="1"><g transform="translate(36.476911, 14.202531)"><g><path d="M 8.9375 -10.703125 L 8.9375 0 L 6.796875 0 L 6.796875 -0.890625 C 6.234375 -0.222656 5.425781 0.109375 4.375 0.109375 C 3.644531 0.109375 2.984375 -0.0507812 2.390625 -0.375 C 1.796875 -0.695312 1.328125 -1.160156 0.984375 -1.765625 C 0.648438 -2.378906 0.484375 -3.082031 0.484375 -3.875 C 0.484375 -4.675781 0.648438 -5.378906 0.984375 -5.984375 C 1.328125 -6.585938 1.796875 -7.050781 2.390625 -7.375 C 2.984375 -7.707031 3.644531 -7.875 4.375 -7.875 C 5.363281 -7.875 6.132812 -7.5625 6.6875 -6.9375 L 6.6875 -10.703125 Z M 4.765625 -1.734375 C 5.328125 -1.734375 5.796875 -1.925781 6.171875 -2.3125 C 6.546875 -2.707031 6.734375 -3.226562 6.734375 -3.875 C 6.734375 -4.53125 6.546875 -5.050781 6.171875 -5.4375 C 5.796875 -5.832031 5.328125 -6.03125 4.765625 -6.03125 C 4.179688 -6.03125 3.703125 -5.832031 3.328125 -5.4375 C 2.953125 -5.050781 2.765625 -4.53125 2.765625 -3.875 C 2.765625 -3.226562 2.953125 -2.707031 3.328125 -2.3125 C 3.703125 -1.925781 4.179688 -1.734375 4.765625 -1.734375 Z M 4.765625 -1.734375 "/></g></g></g><g fill="#2c3892" fill-opacity="1"><g transform="translate(45.976815, 14.202531)"><g><path d="M 4.171875 -7.875 C 5.367188 -7.875 6.289062 -7.585938 6.9375 -7.015625 C 7.582031 -6.441406 7.90625 -5.578125 7.90625 -4.421875 L 7.90625 0 L 5.796875 0 L 5.796875 -0.96875 C 5.367188 -0.25 4.582031 0.109375 3.4375 0.109375 C 2.832031 0.109375 2.3125 0.0078125 1.875 -0.1875 C 1.4375 -0.382812 1.101562 -0.660156 0.875 -1.015625 C 0.644531 -1.378906 0.53125 -1.785156 0.53125 -2.234375 C 0.53125 -2.953125 0.800781 -3.519531 1.34375 -3.9375 C 1.882812 -4.351562 2.722656 -4.5625 3.859375 -4.5625 L 5.65625 -4.5625 C 5.65625 -5.050781 5.503906 -5.425781 5.203125 -5.6875 C 4.910156 -5.957031 4.460938 -6.09375 3.859375 -6.09375 C 3.453125 -6.09375 3.046875 -6.023438 2.640625 -5.890625 C 2.242188 -5.765625 1.90625 -5.585938 1.625 -5.359375 L 0.828125 -6.9375 C 1.242188 -7.238281 1.75 -7.46875 2.34375 -7.625 C 2.9375 -7.789062 3.546875 -7.875 4.171875 -7.875 Z M 4 -1.40625 C 4.382812 -1.40625 4.722656 -1.492188 5.015625 -1.671875 C 5.316406 -1.847656 5.53125 -2.109375 5.65625 -2.453125 L 5.65625 -3.25 L 4.109375 -3.25 C 3.179688 -3.25 2.71875 -2.945312 2.71875 -2.34375 C 2.71875 -2.050781 2.832031 -1.820312 3.0625 -1.65625 C 3.289062 -1.488281 3.601562 -1.40625 4 -1.40625 Z M 4 -1.40625 "/></g></g></g><g fill="#ed1c23" fill-opacity="1"><g transform="translate(54.395751, 14.202531)"><g><path d="M 8.03125 -3.46875 L 1.6875 -3.46875 C 1.75 -2.6875 2.050781 -2.050781 2.59375 -1.5625 C 3.144531 -1.082031 3.835938 -0.84375 4.671875 -0.84375 C 5.140625 -0.84375 5.570312 -0.925781 5.96875 -1.09375 C 6.363281 -1.257812 6.707031 -1.503906 7 -1.828125 L 7.578125 -1.171875 C 7.234375 -0.765625 6.804688 -0.453125 6.296875 -0.234375 C 5.796875 -0.0234375 5.242188 0.078125 4.640625 0.078125 C 3.859375 0.078125 3.164062 -0.0859375 2.5625 -0.421875 C 1.96875 -0.753906 1.5 -1.210938 1.15625 -1.796875 C 0.820312 -2.390625 0.65625 -3.054688 0.65625 -3.796875 C 0.65625 -4.535156 0.816406 -5.195312 1.140625 -5.78125 C 1.460938 -6.363281 1.90625 -6.816406 2.46875 -7.140625 C 3.03125 -7.472656 3.664062 -7.640625 4.375 -7.640625 C 5.070312 -7.640625 5.695312 -7.472656 6.25 -7.140625 C 6.8125 -6.816406 7.25 -6.363281 7.5625 -5.78125 C 7.882812 -5.207031 8.046875 -4.546875 8.046875 -3.796875 Z M 4.375 -6.765625 C 3.644531 -6.765625 3.03125 -6.53125 2.53125 -6.0625 C 2.03125 -5.59375 1.75 -4.984375 1.6875 -4.234375 L 7.0625 -4.234375 C 7 -4.984375 6.71875 -5.59375 6.21875 -6.0625 C 5.726562 -6.53125 5.113281 -6.765625 4.375 -6.765625 Z M 4.375 -6.765625 "/></g></g></g><g fill="#2c3892" fill-opacity="1"><g transform="translate(62.627405, 14.202531)"><g><path d="M 7.765625 -1.96875 L 3.5 -1.96875 L 2.71875 0 L -0.203125 0 L 4.25 -10.09375 L 7.0625 -10.09375 L 11.53125 0 L 8.5625 0 Z M 6.9375 -4.0625 L 5.640625 -7.296875 L 4.34375 -4.0625 Z M 6.9375 -4.0625 "/></g></g></g><g fill="#2c3892" fill-opacity="1"><g transform="translate(73.482382, 14.202531)"><g><path d="M 4.875 0.125 C 4.007812 0.125 3.234375 -0.046875 2.546875 -0.390625 C 1.867188 -0.734375 1.335938 -1.210938 0.953125 -1.828125 C 0.578125 -2.441406 0.390625 -3.140625 0.390625 -3.921875 C 0.390625 -4.703125 0.578125 -5.394531 0.953125 -6 C 1.335938 -6.613281 1.867188 -7.09375 2.546875 -7.4375 C 3.234375 -7.78125 4.007812 -7.953125 4.875 -7.953125 C 5.757812 -7.953125 6.523438 -7.757812 7.171875 -7.375 C 7.816406 -7 8.269531 -6.472656 8.53125 -5.796875 L 6.421875 -4.71875 C 6.066406 -5.414062 5.546875 -5.765625 4.859375 -5.765625 C 4.367188 -5.765625 3.960938 -5.597656 3.640625 -5.265625 C 3.316406 -4.941406 3.15625 -4.492188 3.15625 -3.921875 C 3.15625 -3.335938 3.316406 -2.878906 3.640625 -2.546875 C 3.960938 -2.210938 4.367188 -2.046875 4.859375 -2.046875 C 5.546875 -2.046875 6.066406 -2.394531 6.421875 -3.09375 L 8.53125 -2.015625 C 8.269531 -1.347656 7.816406 -0.820312 7.171875 -0.4375 C 6.523438 -0.0625 5.757812 0.125 4.875 0.125 Z M 4.875 0.125 "/></g></g></g><g fill="#2c3892" fill-opacity="1"><g transform="translate(81.699291, 14.202531)"><g><path d="M 4.21875 -7.953125 C 5.507812 -7.953125 6.492188 -7.65625 7.171875 -7.0625 C 7.859375 -6.46875 8.203125 -5.5625 8.203125 -4.34375 L 8.203125 0 L 5.65625 0 L 5.65625 -1.015625 C 5.257812 -0.253906 4.488281 0.125 3.34375 0.125 C 2.738281 0.125 2.210938 0.0195312 1.765625 -0.1875 C 1.328125 -0.394531 0.992188 -0.679688 0.765625 -1.046875 C 0.546875 -1.410156 0.4375 -1.820312 0.4375 -2.28125 C 0.4375 -3.019531 0.71875 -3.59375 1.28125 -4 C 1.851562 -4.40625 2.726562 -4.609375 3.90625 -4.609375 L 5.46875 -4.609375 C 5.414062 -5.441406 4.863281 -5.859375 3.8125 -5.859375 C 3.4375 -5.859375 3.054688 -5.796875 2.671875 -5.671875 C 2.285156 -5.554688 1.957031 -5.390625 1.6875 -5.171875 L 0.765625 -7.03125 C 1.191406 -7.320312 1.71875 -7.546875 2.34375 -7.703125 C 2.96875 -7.867188 3.59375 -7.953125 4.21875 -7.953125 Z M 4.109375 -1.59375 C 4.429688 -1.59375 4.710938 -1.671875 4.953125 -1.828125 C 5.191406 -1.984375 5.363281 -2.210938 5.46875 -2.515625 L 5.46875 -3.1875 L 4.28125 -3.1875 C 3.488281 -3.1875 3.09375 -2.921875 3.09375 -2.390625 C 3.09375 -2.148438 3.179688 -1.957031 3.359375 -1.8125 C 3.546875 -1.664062 3.796875 -1.59375 4.109375 -1.59375 Z M 4.109375 -1.59375 "/></g></g></g><g fill="#2c3892" fill-opacity="1"><g transform="translate(90.276594, 14.202531)"><g><path d="M 9.1875 -10.703125 L 9.1875 0 L 6.578125 0 L 6.578125 -0.78125 C 6.066406 -0.175781 5.300781 0.125 4.28125 0.125 C 3.570312 0.125 2.921875 -0.0351562 2.328125 -0.359375 C 1.742188 -0.691406 1.28125 -1.164062 0.9375 -1.78125 C 0.601562 -2.40625 0.4375 -3.117188 0.4375 -3.921875 C 0.4375 -4.734375 0.601562 -5.441406 0.9375 -6.046875 C 1.28125 -6.660156 1.742188 -7.128906 2.328125 -7.453125 C 2.921875 -7.785156 3.570312 -7.953125 4.28125 -7.953125 C 5.21875 -7.953125 5.941406 -7.679688 6.453125 -7.140625 L 6.453125 -10.703125 Z M 4.859375 -2.046875 C 5.328125 -2.046875 5.710938 -2.210938 6.015625 -2.546875 C 6.328125 -2.878906 6.484375 -3.335938 6.484375 -3.921875 C 6.484375 -4.492188 6.332031 -4.941406 6.03125 -5.265625 C 5.726562 -5.597656 5.335938 -5.765625 4.859375 -5.765625 C 4.378906 -5.765625 3.984375 -5.597656 3.671875 -5.265625 C 3.367188 -4.941406 3.21875 -4.492188 3.21875 -3.921875 C 3.21875 -3.335938 3.367188 -2.878906 3.671875 -2.546875 C 3.984375 -2.210938 4.378906 -2.046875 4.859375 -2.046875 Z M 4.859375 -2.046875 "/></g></g></g><g fill="#2c3892" fill-opacity="1"><g transform="translate(99.86299, 14.202531)"><g><path d="M 8.875 -3.890625 C 8.875 -3.867188 8.859375 -3.644531 8.828125 -3.21875 L 3.140625 -3.21875 C 3.253906 -2.8125 3.476562 -2.5 3.8125 -2.28125 C 4.144531 -2.070312 4.5625 -1.96875 5.0625 -1.96875 C 5.4375 -1.96875 5.757812 -2.019531 6.03125 -2.125 C 6.3125 -2.226562 6.585938 -2.398438 6.859375 -2.640625 L 8.3125 -1.140625 C 7.550781 -0.296875 6.4375 0.125 4.96875 0.125 C 4.0625 0.125 3.257812 -0.046875 2.5625 -0.390625 C 1.875 -0.734375 1.335938 -1.210938 0.953125 -1.828125 C 0.578125 -2.441406 0.390625 -3.140625 0.390625 -3.921875 C 0.390625 -4.691406 0.570312 -5.378906 0.9375 -5.984375 C 1.3125 -6.597656 1.828125 -7.078125 2.484375 -7.421875 C 3.140625 -7.773438 3.875 -7.953125 4.6875 -7.953125 C 5.46875 -7.953125 6.175781 -7.789062 6.8125 -7.46875 C 7.445312 -7.144531 7.945312 -6.675781 8.3125 -6.0625 C 8.6875 -5.457031 8.875 -4.734375 8.875 -3.890625 Z M 4.703125 -6 C 4.273438 -6 3.921875 -5.878906 3.640625 -5.640625 C 3.359375 -5.398438 3.175781 -5.070312 3.09375 -4.65625 L 6.296875 -4.65625 C 6.222656 -5.070312 6.046875 -5.398438 5.765625 -5.640625 C 5.484375 -5.878906 5.128906 -6 4.703125 -6 Z M 4.703125 -6 "/></g></g></g><g fill="#2c3892" fill-opacity="1"><g transform="translate(108.642112, 14.202531)"><g><path d="M 11.0625 -7.953125 C 12.019531 -7.953125 12.785156 -7.660156 13.359375 -7.078125 C 13.929688 -6.503906 14.21875 -5.632812 14.21875 -4.46875 L 14.21875 0 L 11.484375 0 L 11.484375 -4.03125 C 11.484375 -4.570312 11.378906 -4.972656 11.171875 -5.234375 C 10.960938 -5.492188 10.671875 -5.625 10.296875 -5.625 C 9.878906 -5.625 9.546875 -5.476562 9.296875 -5.1875 C 9.046875 -4.90625 8.921875 -4.46875 8.921875 -3.875 L 8.921875 0 L 6.1875 0 L 6.1875 -4.03125 C 6.1875 -5.09375 5.789062 -5.625 5 -5.625 C 4.582031 -5.625 4.25 -5.476562 4 -5.1875 C 3.75 -4.90625 3.625 -4.46875 3.625 -3.875 L 3.625 0 L 0.875 0 L 0.875 -7.8125 L 3.484375 -7.8125 L 3.484375 -7 C 3.773438 -7.3125 4.117188 -7.546875 4.515625 -7.703125 C 4.921875 -7.867188 5.359375 -7.953125 5.828125 -7.953125 C 6.378906 -7.953125 6.867188 -7.847656 7.296875 -7.640625 C 7.734375 -7.441406 8.082031 -7.132812 8.34375 -6.71875 C 8.65625 -7.113281 9.046875 -7.414062 9.515625 -7.625 C 9.984375 -7.84375 10.5 -7.953125 11.0625 -7.953125 Z M 11.0625 -7.953125 "/></g></g></g><g clip-path="url(#b75fdb31f9)"><g fill="#2c3892" fill-opacity="1"><g transform="translate(123.230743, 14.202531)"><g><path d="M 9.109375 -7.8125 L 5.734375 0.3125 C 5.347656 1.28125 4.867188 1.957031 4.296875 2.34375 C 3.734375 2.726562 3.039062 2.921875 2.21875 2.921875 C 1.800781 2.921875 1.382812 2.851562 0.96875 2.71875 C 0.550781 2.59375 0.210938 2.425781 -0.046875 2.21875 L 0.90625 0.296875 C 1.0625 0.441406 1.242188 0.554688 1.453125 0.640625 C 1.671875 0.722656 1.894531 0.765625 2.125 0.765625 C 2.382812 0.765625 2.597656 0.710938 2.765625 0.609375 C 2.929688 0.503906 3.070312 0.332031 3.1875 0.09375 L -0.15625 -7.8125 L 2.65625 -7.8125 L 4.578125 -3.046875 L 6.5 -7.8125 Z M 9.109375 -7.8125 "/></g></g></g></g></g></g><g clip-path="url(#965c6eaf74)"><path fill="#ed1c23" d="M 25.246094 51.96875 L 25.246094 59.316406 L 21.683594 59.316406 L 21.683594 51.96875 L 25.246094 51.96875 " fill-opacity="1" fill-rule="nonzero"/></g><g clip-path="url(#aabc1f6587)"><path fill="#ed1c23" d="M 44.414062 39.875 L 33.9375 48.59375 L 35.421875 54.925781 L 30.910156 53.261719 L 30.207031 50.269531 L 37.65625 44.070312 L 36.578125 43.449219 L 38.308594 38.949219 L 33.703125 39.339844 L 33.1875 37.917969 L 27.433594 45.21875 L 28.449219 33.136719 L 26.769531 34.53125 L 23.464844 27.992188 L 20.167969 34.53125 L 18.484375 33.132812 L 19.496094 45.21875 L 13.742188 37.914062 L 13.222656 39.339844 L 8.625 38.949219 L 10.355469 43.449219 L 9.269531 44.074219 L 16.71875 50.269531 L 16.019531 53.265625 L 11.511719 54.925781 L 12.988281 48.59375 L 2.515625 39.875 L 4.800781 38.5625 L 2.148438 31.660156 L 9.421875 32.28125 L 10.710938 28.734375 L 16.167969 35.660156 L 15.050781 22.273438 L 18.742188 25.34375 L 23.464844 15.980469 L 28.191406 25.34375 L 31.882812 22.273438 L 30.761719 35.660156 L 36.222656 28.734375 L 37.507812 32.28125 L 44.785156 31.660156 L 42.132812 38.5625 L 44.414062 39.875 " fill-opacity="1" fill-rule="nonzero"/></g></svg>